<svg width="384" height="384" viewBox="0 0 384 384" fill="none" xmlns="http://www.w3.org/2000/svg">
<path d="M192.008 337.006C272.365 337.006 337.508 271.863 337.508 191.506C337.508 111.148 272.365 46.0059 192.008 46.0059C111.65 46.0059 46.5078 111.148 46.5078 191.506C46.5078 271.863 111.65 337.006 192.008 337.006Z" stroke="#FFB93A" stroke-width="10"/>
<path d="M187.324 338.996L186.684 338.956C185.371 338.874 184.235 338.014 183.8 336.772V336.772C183.365 335.53 182.229 334.67 180.916 334.588L179.714 334.513M181.71 338.645L180.642 338.579C180.072 338.543 179.714 337.949 179.947 337.428V337.428C180.055 337.186 180.04 336.907 179.906 336.679L178.591 334.443" stroke="#353535"/>
<path d="M178.09 338.418L177.453 338.338C176.148 338.173 175.068 337.243 174.712 335.977V335.977C174.356 334.71 173.276 333.78 171.971 333.616L170.776 333.465M172.509 337.715L171.447 337.581C170.881 337.51 170.56 336.895 170.826 336.389V336.389C170.949 336.155 170.951 335.876 170.832 335.64L169.66 333.325" stroke="#353535"/>
<path d="M168.055 337.119L167.425 336.995C166.134 336.742 165.121 335.739 164.853 334.451V334.451C164.585 333.163 163.572 332.161 162.281 331.908L161.099 331.675M162.535 336.034L161.486 335.828C160.925 335.718 160.647 335.082 160.947 334.596V334.596C161.086 334.371 161.108 334.092 161.005 333.848L159.995 331.458" stroke="#353535"/>
<path d="M158.301 335.145L157.681 334.978C156.41 334.638 155.467 333.57 155.287 332.266V332.266C155.107 330.963 154.163 329.895 152.893 329.554L151.729 329.243M152.867 333.689L151.834 333.412C151.282 333.264 151.048 332.611 151.38 332.146V332.146C151.534 331.931 151.574 331.654 151.488 331.404L150.643 328.952" stroke="#353535"/>
<path d="M149.434 332.773L148.825 332.569C147.578 332.15 146.704 331.025 146.605 329.713V329.713C146.506 328.401 145.632 327.276 144.385 326.857L143.243 326.473M144.102 330.982L143.087 330.641C142.546 330.459 142.353 329.792 142.714 329.349V329.349C142.881 329.144 142.938 328.871 142.868 328.616L142.177 326.115" stroke="#353535"/>
<path d="M140.668 329.818L140.074 329.576C138.855 329.08 138.053 327.902 138.037 326.586V326.586C138.021 325.271 137.219 324.093 136.001 323.596L134.886 323.142M135.459 327.695L134.468 327.291C133.94 327.076 133.789 326.398 134.176 325.979V325.979C134.356 325.785 134.43 325.515 134.376 325.256L133.844 322.717" stroke="#353535"/>
<path d="M131.316 325.969L130.74 325.686C129.559 325.107 128.84 323.877 128.914 322.563V322.563C128.989 321.25 128.269 320.02 127.088 319.44L126.007 318.91M126.266 323.492L125.305 323.021C124.793 322.77 124.689 322.084 125.104 321.692V321.692C125.297 321.51 125.39 321.247 125.353 320.985L124.997 318.415" stroke="#353535"/>
<path d="M122.395 321.545L121.839 321.224C120.699 320.566 120.065 319.29 120.228 317.985V317.985C120.391 316.679 119.757 315.403 118.618 314.746L117.575 314.143M117.523 318.733L116.597 318.198C116.102 317.912 116.045 317.221 116.486 316.858V316.858C116.69 316.69 116.801 316.433 116.782 316.169L116.6 313.581" stroke="#353535"/>
<path d="M114.449 316.953L113.914 316.598C112.818 315.871 112.265 314.557 112.509 313.265V313.265C112.753 311.972 112.2 310.659 111.104 309.931L110.1 309.265M109.763 313.842L108.871 313.251C108.396 312.935 108.382 312.241 108.844 311.907V311.907C109.059 311.752 109.185 311.502 109.183 311.238L109.163 308.643" stroke="#353535"/>
<path d="M106.742 311.84L106.231 311.452C105.183 310.657 104.713 309.312 105.038 308.037V308.037C105.363 306.762 104.893 305.417 103.844 304.622L102.885 303.894M102.26 308.441L101.408 307.794C100.953 307.449 100.983 306.756 101.466 306.451V306.451C101.689 306.31 101.831 306.069 101.846 305.805L101.989 303.214" stroke="#353535"/>
<path d="M98.7031 305.697L98.2196 305.275C97.2286 304.41 96.8522 303.035 97.2641 301.786V301.786C97.6761 300.537 97.2997 299.162 96.3087 298.297L95.4014 297.505M94.4657 301.998L93.6597 301.294C93.2296 300.919 93.3069 300.229 93.8096 299.958V299.958C94.0426 299.833 94.2004 299.602 94.2331 299.34L94.5539 296.765" stroke="#353535"/>
<path d="M91.2383 299.131L90.7844 298.677C89.8542 297.747 89.5716 296.35 90.0671 295.131V295.131C90.5626 293.913 90.28 292.516 89.3498 291.586L88.4982 290.734M87.2607 295.153L86.5042 294.397C86.1004 293.993 86.2242 293.31 86.7441 293.074V293.074C86.985 292.965 87.1581 292.745 87.2085 292.485L87.7027 289.939" stroke="#353535"/>
<path d="M84.7461 292.619L84.3214 292.138C83.451 291.151 83.2561 289.74 83.8267 288.554V288.554C84.3972 287.369 84.2023 285.957 83.3319 284.971L82.5351 284.068M81.0244 288.401L80.3165 287.599C79.9387 287.171 80.1048 286.497 80.6384 286.294V286.294C80.8857 286.2 81.0721 285.992 81.1387 285.735L81.7907 283.224" stroke="#353535"/>
<path d="M78.6328 285.707L78.2392 285.2C77.4325 284.161 77.3267 282.74 77.9706 281.593V281.593C78.6145 280.445 78.5087 279.024 77.7019 277.985L76.9634 277.034M75.1834 281.264L74.5274 280.419C74.1772 279.968 74.3854 279.306 74.9307 279.136V279.136C75.1834 279.058 75.3825 278.862 75.465 278.61L76.2736 276.145" stroke="#353535"/>
<path d="M72.4609 277.693L72.1032 277.161C71.3698 276.068 71.362 274.643 72.0833 273.543V273.543C72.8045 272.443 72.7967 271.018 72.0634 269.926L71.392 268.926M69.3253 273.023L68.7289 272.135C68.4106 271.661 68.6638 271.015 69.2195 270.883V270.883C69.477 270.823 69.6892 270.641 69.7888 270.395L70.7649 267.992" stroke="#353535"/>
<path d="M66.9453 269.4L66.6244 268.845C65.9666 267.705 66.0552 266.283 66.8492 265.234V265.234C67.6432 264.185 67.7318 262.763 67.074 261.624L66.4718 260.581M64.1327 264.529L63.5978 263.603C63.3123 263.108 63.6086 262.481 64.1718 262.387V262.387C64.4329 262.343 64.6569 262.176 64.7728 261.938L65.9093 259.606" stroke="#353535"/>
<path d="M62.3555 261.451L62.0699 260.876C61.4844 259.698 61.6615 258.284 62.5194 257.287V257.287C63.3773 256.29 63.5544 254.876 62.969 253.697L62.433 252.619M59.8522 256.414L59.3761 255.456C59.122 254.944 59.4568 254.337 60.0249 254.278V254.278C60.2882 254.251 60.5221 254.098 60.6526 253.868L61.9324 251.612" stroke="#353535"/>
<path d="M58.2461 253.178L57.9972 252.586C57.4869 251.374 57.7525 249.973 58.6714 249.032V249.032C59.5902 248.091 59.8558 246.69 59.3456 245.478L58.8785 244.368M56.0643 247.993L55.6493 247.007C55.4278 246.481 55.8002 245.895 56.3708 245.873V245.873C56.6352 245.862 56.8783 245.724 57.0231 245.503L58.4421 243.331" stroke="#353535"/>
<path d="M54.3594 243.84L54.1517 243.233C53.7261 241.988 54.0873 240.609 55.0688 239.733V239.733C56.0502 238.857 56.4115 237.479 55.9858 236.234L55.5962 235.094M52.5393 238.517L52.1931 237.505C52.0084 236.965 52.4202 236.406 52.9909 236.423V236.423C53.2555 236.431 53.5075 236.31 53.6671 236.099L55.2321 234.03" stroke="#353535"/>
<path d="M51.1758 234.398L51.0097 233.779C50.6692 232.508 51.1229 231.157 52.1613 230.349V230.349C53.1997 229.542 53.6534 228.191 53.3129 226.92L53.0012 225.757M49.7199 228.965L49.443 227.932C49.2952 227.38 49.7438 226.851 50.3121 226.906V226.906C50.5755 226.932 50.8351 226.828 51.0087 226.628L52.71 224.67" stroke="#353535"/>
<path d="M48.8008 225.533L48.6737 224.904C48.4131 223.615 48.9502 222.295 50.037 221.553V221.553C51.1237 220.812 51.6608 219.492 51.4002 218.202L51.1617 217.022M47.6866 220.02L47.4747 218.971C47.3616 218.411 47.8423 217.911 48.4061 218.002V218.002C48.6674 218.044 48.9329 217.956 49.1186 217.768L50.9389 215.919" stroke="#353535"/>
<path d="M46.9727 216.477L46.8853 215.841C46.7063 214.537 47.3252 213.254 48.4565 212.582V212.582C49.5877 211.911 50.2066 210.627 50.0276 209.324L49.8637 208.13M46.2071 210.904L46.0615 209.844C45.9838 209.278 46.495 208.809 47.052 208.935V208.935C47.3102 208.993 47.5806 208.923 47.7778 208.747L49.7106 207.016" stroke="#353535"/>
<path d="M45.6367 206.451L45.5933 205.811C45.5043 204.498 46.2101 203.26 47.3849 202.668V202.668C48.5596 202.076 49.2654 200.838 49.1764 199.525L49.0949 198.324M45.2563 200.839L45.1839 199.772C45.1453 199.202 45.6876 198.769 46.2346 198.933V198.933C46.4881 199.009 46.7628 198.957 46.9716 198.795L49.0189 197.201" stroke="#353535"/>
<path d="M45.0039 196.506L45.0039 195.864C45.0039 194.549 45.7918 193.361 47.0039 192.85V192.85C48.216 192.338 49.0039 191.151 49.0039 189.835L49.0039 188.631M45.0039 190.881L45.0039 189.811C45.0039 189.24 45.5742 188.845 46.1089 189.045V189.045C46.3567 189.138 46.6342 189.105 46.8536 188.957L49.0039 187.506" stroke="#353535"/>
<path d="M45 187.328L45.04 186.688C45.1221 185.375 45.9826 184.238 47.2242 183.804V183.804C48.4658 183.369 49.3262 182.233 49.4083 180.92L49.4834 179.718M45.3509 181.714L45.4176 180.646C45.4532 180.076 46.0471 179.717 46.5682 179.951V179.951C46.8097 180.059 47.0887 180.044 47.3169 179.91L49.5536 178.595" stroke="#353535"/>
<path d="M45.5859 178.109L45.6661 177.473C45.8305 176.167 46.7607 175.088 48.0272 174.732V174.732C49.2936 174.376 50.2238 173.296 50.3882 171.991L50.5387 170.796M46.2889 172.528L46.4226 171.467C46.4939 170.9 47.1092 170.58 47.6146 170.845V170.845C47.8488 170.968 48.1282 170.971 48.3644 170.851L50.6793 169.68" stroke="#353535"/>
<path d="M46.8906 168.076L47.0144 167.446C47.2682 166.156 48.2704 165.142 49.5584 164.874V164.874C50.8463 164.606 51.8486 163.593 52.1023 162.302L52.3346 161.121M47.9757 162.557L48.1821 161.507C48.2923 160.947 48.9281 160.669 49.4141 160.969V160.969C49.6393 161.108 49.9179 161.129 50.1617 161.026L52.5517 160.017" stroke="#353535"/>
<path d="M48.8438 158.307L49.0099 157.687C49.3504 156.416 50.4188 155.473 51.7219 155.293V155.293C53.0251 155.112 54.0935 154.169 54.434 152.898L54.7457 151.735M50.2997 152.873L50.5766 151.84C50.7244 151.288 51.3776 151.054 51.8421 151.386V151.386C52.0574 151.54 52.3339 151.58 52.5842 151.494L55.0369 150.649" stroke="#353535"/>
<path d="M51.2227 149.445L51.4271 148.837C51.8462 147.59 52.9714 146.715 54.2833 146.617V146.617C55.5951 146.518 56.7203 145.643 57.1394 144.396L57.5231 143.255M53.0146 144.113L53.3555 143.099C53.5374 142.558 54.2039 142.365 54.6468 142.725V142.725C54.8522 142.892 55.1256 142.95 55.3807 142.879L57.8814 142.188" stroke="#353535"/>
<path d="M54.168 140.689L54.4103 140.095C54.9069 138.877 56.0848 138.075 57.4003 138.059V138.059C58.7157 138.043 59.8936 137.24 60.3903 136.022L60.8449 134.907M56.2914 135.481L56.6953 134.49C56.9109 133.961 57.5882 133.81 58.0076 134.198V134.198C58.202 134.378 58.4714 134.452 58.7304 134.398L61.2696 133.865" stroke="#353535"/>
<path d="M58.0273 131.338L58.3099 130.762C58.8892 129.581 60.1195 128.861 61.4329 128.936V128.936C62.7463 129.01 63.9767 128.291 64.5559 127.11L65.0862 126.028M60.504 126.287L60.9751 125.327C61.2265 124.814 61.9126 124.71 62.3044 125.126V125.126C62.486 125.318 62.7495 125.411 63.0117 125.375L65.5815 125.018" stroke="#353535"/>
<path d="M62.4453 122.402L62.7662 121.847C63.424 120.707 64.7002 120.073 66.0056 120.236V120.236C67.3109 120.399 68.5871 119.765 69.2449 118.625L69.8471 117.582M65.2579 117.531L65.7929 116.604C66.0784 116.11 66.7699 116.053 67.1327 116.494V116.494C67.3008 116.698 67.5575 116.809 67.8216 116.79L70.4096 116.608" stroke="#353535"/>
<path d="M67.0312 114.459L67.3862 113.924C68.1138 112.828 69.427 112.275 70.7197 112.519V112.519C72.0124 112.763 73.3256 112.209 74.0532 111.113L74.7192 110.11M70.1422 109.773L70.7339 108.881C71.0497 108.405 71.7435 108.392 72.078 108.854V108.854C72.2331 109.069 72.4824 109.195 72.7471 109.193L75.3414 109.173" stroke="#353535"/>
<path d="M72.1484 106.768L72.5363 106.256C73.3313 105.208 74.6767 104.738 75.9515 105.063V105.063C77.2263 105.388 78.5717 104.918 79.3667 103.87L80.0945 102.91M75.5477 102.286L76.1942 101.433C76.5393 100.979 77.2326 101.008 77.5374 101.491V101.491C77.6787 101.715 77.9196 101.856 78.1839 101.871L80.7743 102.014" stroke="#353535"/>
<path d="M78.3008 98.7324L78.7229 98.249C79.5881 97.258 80.9627 96.8816 82.2121 97.2935V97.2935C83.4615 97.7054 84.8361 97.329 85.7013 96.338L86.4933 95.4308M82.0002 94.4951L82.7039 93.6892C83.0794 93.259 83.769 93.3364 84.0399 93.839V93.839C84.1655 94.072 84.3961 94.2298 84.6587 94.2626L87.2332 94.5833" stroke="#353535"/>
<path d="M84.875 91.248L85.3288 90.7942C86.2591 89.864 87.656 89.5814 88.8747 90.0769V90.0769C90.0933 90.5724 91.4902 90.2898 92.4205 89.3596L93.2721 88.5081M88.8526 87.2707L89.6091 86.5141C90.0129 86.1104 90.6956 86.2342 90.9319 86.754V86.754C91.0415 86.995 91.2608 87.168 91.5207 87.2184L94.0676 87.7126" stroke="#353535"/>
<path d="M91.3633 84.7578L91.8445 84.3332C92.831 83.4628 94.2428 83.2679 95.4282 83.8384V83.8384C96.6136 84.409 98.0254 84.2141 99.0118 83.3437L99.9149 82.5469M95.5812 81.0363L96.3834 80.3284C96.8116 79.9506 97.4853 80.1168 97.6887 80.6503V80.6503C97.783 80.8976 97.9912 81.084 98.2474 81.1506L100.758 81.8026" stroke="#353535"/>
<path d="M98.293 78.6582L98.8 78.2647C99.8391 77.458 101.26 77.3522 102.408 77.996V77.996C103.555 78.6399 104.976 78.5341 106.015 77.7274L106.967 76.989M102.736 75.209L103.581 74.553C104.033 74.2028 104.694 74.411 104.864 74.9562V74.9562C104.943 75.209 105.139 75.4081 105.39 75.4906L107.855 76.2991" stroke="#353535"/>
<path d="M106.312 72.4883L106.845 72.1305C107.938 71.3972 109.363 71.3894 110.463 72.1107V72.1107C111.563 72.8319 112.988 72.8241 114.081 72.0908L115.08 71.4195M110.983 69.3528L111.871 68.7565C112.345 68.4382 112.991 68.6914 113.123 69.247V69.247C113.184 69.5046 113.365 69.7167 113.611 69.8163L116.014 70.7925" stroke="#353535"/>
<path d="M114.605 66.9512L115.161 66.6303C116.301 65.9725 117.723 66.0611 118.772 66.8551V66.8551C119.821 67.6491 121.243 67.7377 122.383 67.08L123.426 66.4779M119.477 64.1388L120.403 63.6038C120.898 63.3183 121.525 63.6146 121.619 64.1779V64.1779C121.663 64.439 121.83 64.6629 122.068 64.7789L124.4 65.9154" stroke="#353535"/>
<path d="M122.543 62.373L123.118 62.0874C124.296 61.502 125.71 61.6792 126.707 62.5371V62.5371C127.705 63.395 129.119 63.5721 130.297 62.9867L131.375 62.4508M127.58 59.8699L128.538 59.3939C129.05 59.1398 129.658 59.4746 129.716 60.0426V60.0426C129.743 60.3059 129.896 60.5398 130.126 60.6704L132.383 61.9502" stroke="#353535"/>
<path d="M130.832 58.2676L131.424 58.0187C132.636 57.5084 134.036 57.7741 134.978 58.6929V58.6929C135.919 59.6118 137.32 59.8774 138.532 59.3672L139.642 58.9001M136.017 56.0859L137.003 55.671C137.529 55.4495 138.115 55.8219 138.137 56.3924V56.3924C138.148 56.6569 138.286 56.9 138.507 57.0447L140.679 58.4638" stroke="#353535"/>
<path d="M140.18 54.3828L140.787 54.1752C142.032 53.7495 143.41 54.1108 144.286 55.0923V55.0923C145.162 56.0737 146.541 56.435 147.786 56.0094L148.925 55.6197M145.502 52.5629L146.514 52.2167C147.055 52.032 147.613 52.4438 147.597 53.0145V53.0145C147.589 53.2791 147.71 53.5311 147.921 53.6907L149.99 55.2558" stroke="#353535"/>
<path d="M149.609 51.1797L150.229 51.0136C151.5 50.6731 152.851 51.1268 153.659 52.1653V52.1653C154.466 53.2037 155.817 53.6574 157.088 53.3169L158.251 53.0053M155.043 49.7239L156.076 49.447C156.628 49.2992 157.157 49.7478 157.102 50.3161V50.3161C157.076 50.5796 157.18 50.8391 157.379 51.0127L159.338 52.7141" stroke="#353535"/>
<path d="M158.473 48.8105L159.102 48.6834C160.391 48.4229 161.711 48.96 162.453 50.0467V50.0467C163.194 51.1335 164.514 51.6706 165.803 51.4101L166.984 51.1715M163.986 47.6964L165.035 47.4845C165.595 47.3714 166.095 47.8522 166.004 48.4159V48.4159C165.962 48.6773 166.049 48.9428 166.238 49.1285L168.087 50.9487" stroke="#353535"/>
<path d="M167.531 46.9941L168.167 46.9068C169.47 46.7278 170.754 47.3467 171.426 48.478V48.478C172.097 49.6092 173.381 50.2281 174.684 50.0491L175.877 49.8852M173.104 46.2286L174.164 46.083C174.73 46.0053 175.199 46.5166 175.073 47.0735V47.0735C175.015 47.3317 175.085 47.6021 175.261 47.7993L176.992 49.7321" stroke="#353535"/>
<path d="M177.566 45.6602L178.207 45.6168C179.519 45.5278 180.757 46.2336 181.35 47.4083V47.4083C181.942 48.583 183.18 49.2888 184.492 49.1999L185.694 49.1184M183.179 45.2797L184.246 45.2074C184.816 45.1688 185.249 45.711 185.085 46.258V46.258C185.009 46.5116 185.06 46.7862 185.223 46.9951L186.816 49.0423" stroke="#353535"/>
<path d="M187.504 45.0117H188.146C189.461 45.0117 190.649 45.7996 191.16 47.0117V47.0117C191.672 48.2238 192.859 49.0117 194.175 49.0117H195.379M193.129 45.0117H194.199C194.77 45.0117 195.165 45.582 194.965 46.1167V46.1167C194.872 46.3645 194.904 46.642 195.052 46.8614L196.504 49.0117" stroke="#353535"/>
<path d="M196.676 45.0117L197.316 45.0518C198.629 45.1338 199.765 45.9943 200.2 47.2359V47.2359C200.635 48.4775 201.771 49.338 203.084 49.42L204.286 49.4951M202.29 45.3626L203.358 45.4293C203.928 45.4649 204.286 46.0588 204.053 46.5799V46.5799C203.945 46.8214 203.96 47.1004 204.094 47.3286L205.409 49.5653" stroke="#353535"/>
<path d="M205.898 45.6094L206.535 45.6896C207.84 45.854 208.92 46.7841 209.276 48.0506V48.0506C209.632 49.3171 210.712 50.2472 212.017 50.4116L213.212 50.5621M211.479 46.3123L212.541 46.446C213.107 46.5173 213.428 47.1326 213.163 47.638V47.638C213.039 47.8722 213.037 48.1516 213.157 48.3878L214.328 50.7026" stroke="#353535"/>
<path d="M215.938 46.918L216.567 47.0418C217.858 47.2955 218.871 48.2977 219.139 49.5857V49.5857C219.407 50.8736 220.42 51.8759 221.711 52.1296L222.893 52.3619M221.457 48.003L222.507 48.2094C223.067 48.3196 223.345 48.9554 223.045 49.4413V49.4413C222.906 49.6666 222.884 49.9452 222.987 50.189L223.997 52.5789" stroke="#353535"/>
<path d="M225.703 48.8379L226.323 49.004C227.594 49.3445 228.537 50.4129 228.717 51.716V51.716C228.897 53.0192 229.841 54.0876 231.111 54.4281L232.275 54.7398M231.136 50.2937L232.17 50.5707C232.721 50.7184 232.956 51.3716 232.624 51.8362V51.8362C232.47 52.0515 232.429 52.328 232.516 52.5782L233.361 55.031" stroke="#353535"/>
<path d="M234.559 51.2363L235.167 51.4408C236.414 51.8598 237.289 52.985 237.387 54.2968V54.2968C237.486 55.6086 238.36 56.7338 239.607 57.1529L240.749 57.5365M239.891 53.0282L240.905 53.369C241.446 53.5509 241.639 54.2174 241.279 54.6603V54.6603C241.112 54.8656 241.054 55.1391 241.125 55.3942L241.815 57.8949" stroke="#353535"/>
<path d="M243.32 54.1777L243.915 54.42C245.133 54.9166 245.935 56.0945 245.951 57.4099V57.4099C245.967 58.7253 246.769 59.9032 247.987 60.3998L249.103 60.8544M248.529 56.301L249.52 56.7049C250.049 56.9205 250.199 57.5978 249.812 58.0172V58.0172C249.632 58.2116 249.558 58.4809 249.612 58.74L250.144 61.2791" stroke="#353535"/>
<path d="M252.684 58.0391L253.26 58.3216C254.441 58.9008 255.16 60.1311 255.086 61.4445V61.4445C255.011 62.7579 255.731 63.9882 256.912 64.5674L257.993 65.0976M257.734 60.5156L258.695 60.9866C259.207 61.238 259.311 61.9241 258.896 62.3159V62.3159C258.703 62.4975 258.61 62.761 258.647 63.0232L259.003 65.5929" stroke="#353535"/>
<path d="M261.605 62.4375L262.161 62.7584C263.301 63.4161 263.935 64.6923 263.772 65.9976V65.9976C263.609 67.3029 264.243 68.5791 265.382 69.2368L266.425 69.8389M266.477 65.2499L267.403 65.7848C267.898 66.0703 267.955 66.7619 267.514 67.1246V67.1246C267.31 67.2928 267.199 67.5495 267.218 67.8135L267.4 70.4014" stroke="#353535"/>
<path d="M269.551 67.0312L270.086 67.3862C271.182 68.1137 271.735 69.4269 271.491 70.7195V70.7195C271.247 72.0122 271.8 73.3254 272.896 74.0529L273.9 74.7189M274.237 70.142L275.129 70.7337C275.604 71.0495 275.618 71.7432 275.156 72.0778V72.0778C274.941 72.2329 274.815 72.4822 274.817 72.7468L274.837 75.3411" stroke="#353535"/>
<path d="M277.242 72.1562L277.754 72.5441C278.802 73.339 279.272 74.6844 278.947 75.9592V75.9592C278.622 77.2339 279.092 78.5793 280.14 79.3742L281.099 80.102M281.724 75.5553L282.576 76.2019C283.031 76.5469 283.002 77.2401 282.519 77.545V77.545C282.295 77.6863 282.153 77.9271 282.139 78.1914L281.996 80.7818" stroke="#353535"/>
<path d="M285.285 78.3086L285.769 78.7307C286.76 79.5958 287.136 80.9704 286.724 82.2197V82.2197C286.312 83.4691 286.689 84.8436 287.68 85.7088L288.587 86.5008M289.523 82.0079L290.329 82.7115C290.759 83.087 290.681 83.7766 290.179 84.0475V84.0475C289.946 84.173 289.788 84.4036 289.755 84.6662L289.434 87.2406" stroke="#353535"/>
<path d="M292.766 84.8828L293.219 85.3366C294.15 86.2668 294.432 87.6637 293.937 88.8823V88.8823C293.441 90.1009 293.724 91.4978 294.654 92.428L295.506 93.2795M296.743 88.8602L297.5 89.6167C297.903 90.0205 297.78 90.7032 297.26 90.9395V90.9395C297.019 91.049 296.846 91.2684 296.795 91.5282L296.301 94.075" stroke="#353535"/>
<path d="M299.25 91.3574L299.675 91.8387C300.545 92.8251 300.74 94.2368 300.169 95.4222V95.4222C299.599 96.6075 299.794 98.0193 300.664 99.0057L301.461 99.9087M302.972 95.5752L303.68 96.3774C304.057 96.8055 303.891 97.4792 303.358 97.6826V97.6826C303.11 97.7769 302.924 97.9851 302.857 98.2412L302.205 100.752" stroke="#353535"/>
<path d="M305.352 98.3203L305.745 98.8273C306.552 99.8664 306.658 101.288 306.014 102.435V102.435C305.37 103.582 305.476 105.003 306.282 106.042L307.021 106.994M308.801 102.764L309.457 103.609C309.807 104.06 309.599 104.722 309.054 104.891V104.891C308.801 104.97 308.602 105.166 308.519 105.417L307.711 107.882" stroke="#353535"/>
<path d="M311.531 106.344L311.889 106.877C312.622 107.969 312.63 109.394 311.909 110.494V110.494C311.188 111.594 311.195 113.019 311.929 114.112L312.6 115.111M314.667 111.014L315.263 111.902C315.582 112.376 315.328 113.022 314.773 113.154V113.154C314.515 113.215 314.303 113.396 314.203 113.642L313.227 116.045" stroke="#353535"/>
<path d="M317.062 114.611L317.383 115.167C318.041 116.306 317.953 117.729 317.159 118.778V118.778C316.365 119.827 316.276 121.249 316.934 122.388L317.536 123.431M319.875 119.483L320.41 120.409C320.696 120.904 320.399 121.531 319.836 121.625V121.625C319.575 121.668 319.351 121.835 319.235 122.073L318.098 124.405" stroke="#353535"/>
<path d="M321.637 122.561L321.922 123.135C322.508 124.313 322.331 125.727 321.473 126.725V126.725C320.615 127.722 320.438 129.136 321.023 130.314L321.559 131.393M324.14 127.598L324.616 128.556C324.87 129.067 324.535 129.675 323.967 129.733V129.733C323.704 129.76 323.47 129.913 323.34 130.143L322.06 132.4" stroke="#353535"/>
<path d="M325.746 130.852L325.995 131.443C326.505 132.656 326.24 134.056 325.321 134.997V134.997C324.402 135.939 324.136 137.339 324.647 138.551L325.114 139.661M327.928 136.036L328.343 137.022C328.564 137.549 328.192 138.134 327.621 138.157V138.157C327.357 138.167 327.114 138.305 326.969 138.527L325.55 140.698" stroke="#353535"/>
<path d="M329.637 140.201L329.844 140.808C330.27 142.053 329.909 143.432 328.927 144.308V144.308C327.946 145.184 327.585 146.562 328.01 147.807L328.4 148.947M331.457 145.524L331.803 146.536C331.988 147.076 331.576 147.635 331.005 147.618V147.618C330.741 147.61 330.489 147.731 330.329 147.942L328.764 150.011" stroke="#353535"/>
<path d="M332.832 149.615L332.998 150.235C333.339 151.506 332.885 152.857 331.847 153.665V153.665C330.808 154.472 330.354 155.823 330.695 157.094L331.007 158.257M334.288 155.049L334.565 156.082C334.713 156.634 334.264 157.163 333.696 157.108V157.108C333.432 157.082 333.173 157.185 332.999 157.385L331.298 159.344" stroke="#353535"/>
<path d="M335.195 158.482L335.322 159.112C335.583 160.401 335.046 161.721 333.959 162.462V162.462C332.872 163.204 332.335 164.524 332.596 165.813L332.834 166.994M336.309 163.996L336.521 165.045C336.635 165.604 336.154 166.105 335.59 166.014V166.014C335.329 165.972 335.063 166.059 334.877 166.248L333.057 168.096" stroke="#353535"/>
<path d="M337.016 167.551L337.103 168.187C337.282 169.49 336.663 170.774 335.532 171.445V171.445C334.401 172.117 333.782 173.4 333.961 174.704L334.125 175.897M337.781 173.123L337.927 174.183C338.004 174.749 337.493 175.218 336.936 175.092V175.092C336.678 175.034 336.408 175.104 336.21 175.281L334.278 177.011" stroke="#353535"/>
<path d="M338.359 177.588L338.403 178.228C338.492 179.541 337.786 180.779 336.611 181.371V181.371C335.437 181.963 334.731 183.201 334.82 184.514L334.901 185.715M338.74 183.2L338.812 184.267C338.851 184.837 338.309 185.27 337.762 185.106V185.106C337.508 185.03 337.233 185.082 337.024 185.244L334.977 186.838" stroke="#353535"/>
<path d="M339.004 187.506L339.004 188.148C339.004 189.463 338.216 190.651 337.004 191.162V191.162C335.792 191.673 335.004 192.861 335.004 194.177L335.004 195.381M339.004 193.131L339.004 194.201C339.004 194.772 338.434 195.167 337.899 194.966V194.966C337.651 194.874 337.374 194.906 337.154 195.054L335.004 196.506" stroke="#353535"/>
<path d="M338.996 196.684L338.956 197.324C338.874 198.637 338.014 199.773 336.772 200.208V200.208C335.53 200.643 334.67 201.779 334.588 203.092L334.513 204.294M338.645 202.298L338.578 203.365C338.543 203.935 337.949 204.294 337.428 204.061V204.061C337.186 203.953 336.907 203.968 336.679 204.102L334.443 205.417" stroke="#353535"/>
<path d="M338.406 205.918L338.326 206.555C338.162 207.86 337.232 208.94 335.965 209.296V209.296C334.699 209.652 333.768 210.731 333.604 212.037L333.454 213.231M337.703 211.499L337.57 212.56C337.498 213.127 336.883 213.448 336.378 213.182V213.182C336.143 213.059 335.864 213.057 335.628 213.176L333.313 214.348" stroke="#353535"/>
<path d="M337.105 215.959L336.982 216.589C336.728 217.88 335.726 218.893 334.438 219.161V219.161C333.15 219.429 332.148 220.442 331.894 221.733L331.661 222.914M336.02 221.478L335.814 222.528C335.704 223.088 335.068 223.366 334.582 223.066V223.066C334.357 222.927 334.078 222.906 333.834 223.009L331.444 224.018" stroke="#353535"/>
<path d="M335.16 225.703L334.994 226.323C334.654 227.594 333.585 228.537 332.282 228.717V228.717C330.979 228.897 329.91 229.841 329.57 231.111L329.258 232.275M333.704 231.136L333.427 232.17C333.28 232.721 332.626 232.956 332.162 232.624V232.624C331.946 232.47 331.67 232.429 331.42 232.516L328.967 233.361" stroke="#353535"/>
<path d="M332.773 234.568L332.569 235.177C332.15 236.424 331.025 237.298 329.713 237.397V237.397C328.401 237.496 327.276 238.37 326.857 239.617L326.473 240.759M330.981 239.9L330.641 240.914C330.459 241.456 329.792 241.649 329.349 241.288V241.288C329.144 241.121 328.87 241.064 328.615 241.134L326.115 241.825" stroke="#353535"/>
<path d="M329.816 243.336L329.574 243.93C329.078 245.148 327.9 245.951 326.584 245.967V245.967C325.269 245.983 324.091 246.785 323.594 248.003L323.139 249.118M327.693 248.545L327.289 249.535C327.074 250.064 326.396 250.215 325.977 249.827V249.827C325.782 249.648 325.513 249.573 325.254 249.628L322.715 250.16" stroke="#353535"/>
<path d="M325.965 252.697L325.682 253.274C325.103 254.455 323.873 255.174 322.559 255.099V255.099C321.246 255.025 320.016 255.744 319.436 256.925L318.906 258.007M323.488 257.748L323.017 258.708C322.766 259.221 322.08 259.325 321.688 258.909V258.909C321.506 258.717 321.243 258.624 320.98 258.66L318.411 259.017" stroke="#353535"/>
<path d="M321.562 261.605L321.242 262.161C320.584 263.301 319.308 263.935 318.002 263.772V263.772C316.697 263.609 315.421 264.243 314.763 265.382L314.161 266.425M318.75 266.477L318.215 267.403C317.929 267.898 317.238 267.955 316.875 267.514V267.514C316.707 267.31 316.45 267.199 316.186 267.218L313.598 267.4" stroke="#353535"/>
<path d="M316.957 269.547L316.602 270.082C315.875 271.178 314.561 271.731 313.269 271.487V271.487C311.976 271.243 310.663 271.796 309.935 272.892L309.269 273.896M313.846 274.233L313.254 275.125C312.939 275.6 312.245 275.614 311.91 275.152V275.152C311.755 274.937 311.506 274.811 311.241 274.813L308.647 274.833" stroke="#353535"/>
<path d="M311.84 277.254L311.452 277.765C310.657 278.813 309.312 279.283 308.037 278.958V278.958C306.762 278.633 305.417 279.103 304.622 280.152L303.894 281.111M308.441 281.736L307.794 282.588C307.449 283.043 306.756 283.013 306.451 282.53V282.53C306.31 282.307 306.069 282.165 305.804 282.15L303.214 282.007" stroke="#353535"/>
<path d="M305.699 285.301L305.277 285.784C304.412 286.775 303.037 287.152 301.788 286.74V286.74C300.539 286.328 299.164 286.704 298.299 287.695L297.507 288.602M302 289.538L301.296 290.344C300.921 290.774 300.231 290.697 299.96 290.194V290.194C299.835 289.961 299.604 289.803 299.341 289.771L296.767 289.45" stroke="#353535"/>
<path d="M299.129 292.766L298.675 293.219C297.745 294.15 296.348 294.432 295.129 293.937V293.937C293.911 293.441 292.514 293.724 291.583 294.654L290.732 295.506M295.151 296.743L294.395 297.5C293.991 297.903 293.308 297.779 293.072 297.26V297.26C292.962 297.019 292.743 296.846 292.483 296.795L289.936 296.301" stroke="#353535"/>
<path d="M292.637 299.25L292.155 299.675C291.169 300.545 289.757 300.74 288.572 300.169V300.169C287.386 299.599 285.975 299.794 284.988 300.664L284.085 301.461M288.419 302.972L287.617 303.679C287.188 304.057 286.515 303.891 286.311 303.358V303.358C286.217 303.11 286.009 302.924 285.753 302.857L283.242 302.205" stroke="#353535"/>
<path d="M285.688 305.369L285.181 305.763C284.141 306.569 282.72 306.675 281.573 306.031V306.031C280.426 305.387 279.004 305.493 277.965 306.3L277.014 307.038M281.244 308.818L280.399 309.474C279.948 309.825 279.286 309.616 279.116 309.071V309.071C279.038 308.818 278.842 308.619 278.59 308.537L276.125 307.728" stroke="#353535"/>
<path d="M277.672 311.551L277.139 311.909C276.047 312.642 274.622 312.65 273.521 311.928V311.928C272.421 311.207 270.996 311.215 269.904 311.948L268.904 312.62M273.002 314.686L272.114 315.283C271.639 315.601 270.993 315.348 270.862 314.792V314.792C270.801 314.534 270.619 314.322 270.374 314.223L267.97 313.247" stroke="#353535"/>
<path d="M269.402 317.055L268.847 317.376C267.707 318.033 266.285 317.945 265.236 317.151V317.151C264.187 316.357 262.765 316.268 261.625 316.926L260.582 317.528M264.531 319.867L263.604 320.402C263.11 320.688 262.482 320.391 262.389 319.828V319.828C262.345 319.567 262.178 319.343 261.94 319.227L259.608 318.09" stroke="#353535"/>
<path d="M261.441 321.641L260.867 321.926C259.689 322.512 258.274 322.334 257.277 321.477V321.477C256.28 320.619 254.866 320.442 253.687 321.027L252.609 321.563M256.404 324.144L255.446 324.62C254.935 324.874 254.327 324.539 254.268 323.971V323.971C254.241 323.708 254.089 323.474 253.858 323.343L251.602 322.064" stroke="#353535"/>
<path d="M253.164 325.754L252.572 326.003C251.36 326.513 249.96 326.247 249.018 325.329V325.329C248.077 324.41 246.677 324.144 245.464 324.654L244.354 325.121M247.979 327.936L246.993 328.351C246.467 328.572 245.881 328.2 245.859 327.629V327.629C245.848 327.365 245.711 327.122 245.489 326.977L243.317 325.558" stroke="#353535"/>
<path d="M243.824 329.65L243.217 329.858C241.972 330.284 240.594 329.922 239.717 328.941V328.941C238.841 327.959 237.463 327.598 236.218 328.024L235.079 328.413M238.502 331.47L237.489 331.816C236.949 332.001 236.391 331.589 236.407 331.019V331.019C236.415 330.754 236.294 330.502 236.083 330.342L234.014 328.777" stroke="#353535"/>
<path d="M234.398 332.826L233.778 332.992C232.508 333.333 231.157 332.879 230.349 331.841V331.841C229.541 330.802 228.19 330.348 226.92 330.689L225.756 331.001M228.965 334.282L227.932 334.559C227.38 334.707 226.851 334.258 226.906 333.69V333.69C226.932 333.426 226.828 333.167 226.628 332.993L224.67 331.292" stroke="#353535"/>
<path d="M225.527 335.197L224.898 335.324C223.609 335.585 222.289 335.048 221.547 333.961V333.961C220.806 332.874 219.486 332.337 218.196 332.598L217.016 332.836M220.014 336.311L218.965 336.523C218.405 336.636 217.905 336.156 217.996 335.592V335.592C218.038 335.331 217.951 335.065 217.762 334.879L215.913 333.059" stroke="#353535"/>
<path d="M216.461 337.029L215.825 337.117C214.522 337.296 213.238 336.677 212.567 335.545V335.545C211.895 334.414 210.611 333.795 209.308 333.974L208.115 334.138M210.888 337.795L209.828 337.94C209.263 338.018 208.793 337.507 208.919 336.95V336.95C208.978 336.692 208.907 336.421 208.731 336.224L207 334.291" stroke="#353535"/>
<path d="M206.434 338.375L205.793 338.418C204.481 338.507 203.243 337.802 202.65 336.627V336.627C202.058 335.452 200.82 334.746 199.508 334.835L198.306 334.917M200.821 338.755L199.754 338.828C199.184 338.866 198.751 338.324 198.915 337.777V337.777C198.991 337.524 198.94 337.249 198.777 337.04L197.184 334.993" stroke="#353535"/>
<path d="M196.504 339L195.862 339C194.547 339 193.359 338.212 192.848 337V337C192.336 335.788 191.149 335 189.833 335L188.629 335M190.879 339L189.809 339C189.238 339 188.843 338.43 189.043 337.895V337.895C189.136 337.647 189.103 337.37 188.955 337.15L187.504 335" stroke="#353535"/>
</svg>
