<svg width="384" height="384" viewBox="0 0 384 384" fill="none" xmlns="http://www.w3.org/2000/svg">
<rect x="204.061" y="4.08657" width="12" height="12" transform="rotate(48.6071 204.061 4.08657)" stroke="#FFB300"/>
<rect x="181.413" y="363.374" width="12" height="12" transform="rotate(48.6071 181.413 363.374)" stroke="#FFB300"/>
<rect x="204.392" y="380.29" width="12" height="12" transform="rotate(-138.709 204.392 380.29)" stroke="#FFB300"/>
<rect x="181.107" y="21.0424" width="12" height="12" transform="rotate(-138.709 181.107 21.0424)" stroke="#FFB300"/>
<rect x="192.195" y="380.678" width="12" height="12" transform="rotate(-135 192.195 380.678)" stroke="#FFB300"/>
<rect x="192.199" y="20.6777" width="12" height="12" transform="rotate(-135 192.199 20.6777)" stroke="#FFB300"/>
<rect x="192.195" y="3.71492" width="12" height="12" transform="rotate(45 192.195 3.71492)" stroke="#FFB300"/>
<rect x="192.199" y="3.71492" width="12" height="12" transform="rotate(45 192.199 3.71492)" stroke="#FFB300"/>
<rect x="192.195" y="363.715" width="12" height="12" transform="rotate(45 192.195 363.715)" stroke="#FFB300"/>
<rect x="216.16" y="5.24239" width="12" height="12" transform="rotate(52.3015 216.16 5.24239)" stroke="#FFB300"/>
<rect x="170.402" y="362.322" width="12" height="12" transform="rotate(52.3015 170.402 362.322)" stroke="#FFB300"/>
<rect x="216.791" y="379.07" width="12" height="12" transform="rotate(-142.497 216.791 379.07)" stroke="#FFB300"/>
<rect x="169.822" y="22.1485" width="12" height="12" transform="rotate(-142.497 169.822 22.1485)" stroke="#FFB300"/>
<rect x="228.567" y="7.25437" width="12" height="12" transform="rotate(56.1233 228.567 7.25437)" stroke="#FFB300"/>
<rect x="159.11" y="360.491" width="12" height="12" transform="rotate(56.1233 159.11 360.491)" stroke="#FFB300"/>
<rect x="228.789" y="377.097" width="12" height="12" transform="rotate(-146.193 228.789 377.097)" stroke="#FFB300"/>
<rect x="158.91" y="23.945" width="12" height="12" transform="rotate(-146.193 158.91 23.945)" stroke="#FFB300"/>
<rect x="240.981" y="374.256" width="12" height="12" transform="rotate(-150 240.981 374.256)" stroke="#FFB300"/>
<rect x="147.809" y="26.524" width="12" height="12" transform="rotate(-150 147.809 26.524)" stroke="#FFB300"/>
<rect x="240.985" y="10.1361" width="12" height="12" transform="rotate(60 240.985 10.1361)" stroke="#FFB300"/>
<rect x="147.805" y="357.869" width="12" height="12" transform="rotate(60 147.805 357.869)" stroke="#FFB300"/>
<rect x="252.617" y="13.66" width="12" height="12" transform="rotate(63.6944 252.617 13.66)" stroke="#FFB300"/>
<rect x="137.226" y="354.666" width="12" height="12" transform="rotate(63.6944 137.226 354.666)" stroke="#FFB300"/>
<rect x="264.378" y="18.0829" width="12" height="12" transform="rotate(67.5162 264.378 18.0829)" stroke="#FFB300"/>
<rect x="126.518" y="350.64" width="12" height="12" transform="rotate(67.5162 126.518 350.64)" stroke="#FFB300"/>
<rect x="240.985" y="10.1361" width="12" height="12" transform="rotate(60 240.985 10.1361)" stroke="#FFB300"/>
<rect x="147.805" y="357.869" width="12" height="12" transform="rotate(60 147.805 357.869)" stroke="#FFB300"/>
<rect x="252.675" y="370.719" width="12" height="12" transform="rotate(-153.714 252.675 370.719)" stroke="#FFB300"/>
<rect x="137.172" y="29.7522" width="12" height="12" transform="rotate(-153.714 137.172 29.7522)" stroke="#FFB300"/>
<rect x="192.199" y="380.678" width="12" height="12" transform="rotate(-135 192.199 380.678)" stroke="#FFB300"/>
<rect x="264.323" y="366.333" width="12" height="12" transform="rotate(-157.502 264.323 366.333)" stroke="#FFB300"/>
<rect x="126.554" y="33.7393" width="12" height="12" transform="rotate(-157.502 126.554 33.7393)" stroke="#FFB300"/>
<rect x="275.407" y="361.321" width="12" height="12" transform="rotate(-161.198 275.407 361.321)" stroke="#FFB300"/>
<rect x="116.477" y="38.3011" width="12" height="12" transform="rotate(-161.198 116.477 38.3011)" stroke="#FFB300"/>
<rect x="275.453" y="23.0973" width="12" height="12" transform="rotate(71.2118 275.453 23.0973)" stroke="#FFB300"/>
<rect x="116.442" y="346.078" width="12" height="12" transform="rotate(71.2118 116.442 346.078)" stroke="#FFB300"/>
<rect x="286.443" y="355.429" width="12" height="12" transform="rotate(-165 286.443 355.429)" stroke="#FFB300"/>
<rect x="106.443" y="43.6572" width="12" height="12" transform="rotate(-165 106.443 43.6572)" stroke="#FFB300"/>
<rect x="286.436" y="28.9678" width="12" height="12" transform="rotate(75 286.436 28.9678)" stroke="#FFB300"/>
<rect x="106.439" y="340.735" width="12" height="12" transform="rotate(75 106.439 340.735)" stroke="#FFB300"/>
<rect x="296.795" y="35.4027" width="12" height="12" transform="rotate(78.7076 296.795 35.4027)" stroke="#FFB300"/>
<rect x="97.0138" y="334.879" width="12" height="12" transform="rotate(78.7076 97.0138 334.879)" stroke="#FFB300"/>
<rect x="296.951" y="348.891" width="12" height="12" transform="rotate(-168.765 296.951 348.891)" stroke="#FFB300"/>
<rect x="96.8765" y="49.6133" width="12" height="12" transform="rotate(-168.765 96.8765 49.6133)" stroke="#FFB300"/>
<rect x="306.688" y="42.4719" width="12" height="12" transform="rotate(82.4033 306.688 42.4719)" stroke="#FFB300"/>
<rect x="88.0197" y="328.448" width="12" height="12" transform="rotate(82.4033 88.0197 328.448)" stroke="#FFB300"/>
<rect x="307.077" y="341.627" width="12" height="12" transform="rotate(-172.553 307.077 341.627)" stroke="#FFB300"/>
<rect x="87.6589" y="56.2226" width="12" height="12" transform="rotate(-172.553 87.6589 56.2226)" stroke="#FFB300"/>
<rect x="316.331" y="50.3622" width="12" height="12" transform="rotate(86.1914 316.331 50.3622)" stroke="#FFB300"/>
<rect x="79.2453" y="321.266" width="12" height="12" transform="rotate(86.1914 79.2453 321.266)" stroke="#FFB300"/>
<rect x="316.471" y="333.912" width="12" height="12" transform="rotate(-176.249 316.471 333.912)" stroke="#FFB300"/>
<rect x="79.1158" y="63.2418" width="12" height="12" transform="rotate(-176.249 79.1158 63.2418)" stroke="#FFB300"/>
<rect x="325.477" y="325.477" width="12" height="12" transform="rotate(-180 325.477 325.477)" stroke="#FFB300"/>
<rect x="70.918" y="70.916" width="12" height="12" transform="rotate(-180 70.918 70.916)" stroke="#FFB300"/>
<rect x="325.477" y="58.9219" width="12" height="12" transform="rotate(90 325.477 58.9219)" stroke="#FFB300"/>
<rect x="70.918" y="313.479" width="12" height="12" transform="rotate(90 70.918 313.479)" stroke="#FFB300"/>
<rect x="333.914" y="67.9252" width="12" height="12" transform="rotate(93.7512 333.914 67.9252)" stroke="#FFB300"/>
<rect x="63.2457" y="305.283" width="12" height="12" transform="rotate(93.7512 63.2457 305.283)" stroke="#FFB300"/>
<rect x="334.038" y="316.329" width="12" height="12" transform="rotate(176.191 334.038 316.329)" stroke="#FFB300"/>
<rect x="63.132" y="79.2413" width="12" height="12" transform="rotate(176.191 63.132 79.2413)" stroke="#FFB300"/>
<rect x="341.627" y="77.3216" width="12" height="12" transform="rotate(97.4469 341.627 77.3216)" stroke="#FFB300"/>
<rect x="56.2246" y="296.74" width="12" height="12" transform="rotate(97.4469 56.2246 296.74)" stroke="#FFB300"/>
<rect x="341.923" y="306.69" width="12" height="12" transform="rotate(172.403 341.923 306.69)" stroke="#FFB300"/>
<rect x="55.95" y="88.0158" width="12" height="12" transform="rotate(172.403 55.95 88.0158)" stroke="#FFB300"/>
<rect x="348.889" y="87.4418" width="12" height="12" transform="rotate(101.235 348.889 87.4418)" stroke="#FFB300"/>
<rect x="49.6153" y="287.524" width="12" height="12" transform="rotate(101.235 49.6153 287.524)" stroke="#FFB300"/>
<rect x="348.998" y="296.797" width="12" height="12" transform="rotate(168.708 348.998 296.797)" stroke="#FFB300"/>
<rect x="49.5211" y="97.0119" width="12" height="12" transform="rotate(168.708 49.5211 97.0119)" stroke="#FFB300"/>
<rect x="355.427" y="286.439" width="12" height="12" transform="rotate(165 355.427 286.439)" stroke="#FFB300"/>
<rect x="43.6611" y="106.437" width="12" height="12" transform="rotate(165 43.6611 106.437)" stroke="#FFB300"/>
<rect x="355.427" y="97.959" width="12" height="12" transform="rotate(105 355.427 97.959)" stroke="#FFB300"/>
<rect x="43.6611" y="277.957" width="12" height="12" transform="rotate(105 43.6611 277.957)" stroke="#FFB300"/>
<rect x="361.295" y="275.449" width="12" height="12" transform="rotate(161.212 361.295 275.449)" stroke="#FFB300"/>
<rect x="38.3187" y="116.44" width="12" height="12" transform="rotate(161.212 38.3187 116.44)" stroke="#FFB300"/>
<rect x="361.319" y="108.988" width="12" height="12" transform="rotate(108.802 361.319 108.988)" stroke="#FFB300"/>
<rect x="38.303" y="267.916" width="12" height="12" transform="rotate(108.802 38.303 267.916)" stroke="#FFB300"/>
<rect x="374.262" y="240.983" width="12" height="12" transform="rotate(150 374.262 240.983)" stroke="#FFB300"/>
<rect x="26.5318" y="147.805" width="12" height="12" transform="rotate(150 26.5318 147.805)" stroke="#FFB300"/>
<rect x="370.736" y="252.615" width="12" height="12" transform="rotate(153.694 370.736 252.615)" stroke="#FFB300"/>
<rect x="29.7325" y="137.226" width="12" height="12" transform="rotate(153.694 29.7325 137.226)" stroke="#FFB300"/>
<rect x="366.308" y="264.38" width="12" height="12" transform="rotate(157.516 366.308 264.38)" stroke="#FFB300"/>
<rect x="33.753" y="126.518" width="12" height="12" transform="rotate(157.516 33.753 126.518)" stroke="#FFB300"/>
<rect x="366.331" y="120.066" width="12" height="12" transform="rotate(112.498 366.331 120.066)" stroke="#FFB300"/>
<rect x="33.7413" y="257.843" width="12" height="12" transform="rotate(112.498 33.7413 257.843)" stroke="#FFB300"/>
<rect x="370.721" y="131.727" width="12" height="12" transform="rotate(116.286 370.721 131.727)" stroke="#FFB300"/>
<rect x="29.7561" y="247.227" width="12" height="12" transform="rotate(116.286 29.7561 247.227)" stroke="#FFB300"/>
<rect x="374.262" y="240.981" width="12" height="12" transform="rotate(150 374.262 240.981)" stroke="#FFB300"/>
<rect x="26.5279" y="147.803" width="12" height="12" transform="rotate(150 26.5279 147.803)" stroke="#FFB300"/>
<rect x="374.254" y="143.417" width="12" height="12" transform="rotate(120 374.254 143.417)" stroke="#FFB300"/>
<rect x="26.5279" y="236.591" width="12" height="12" transform="rotate(120 26.5279 236.591)" stroke="#FFB300"/>
<rect x="377.095" y="155.612" width="12" height="12" transform="rotate(123.807 377.095 155.612)" stroke="#FFB300"/>
<rect x="23.947" y="225.491" width="12" height="12" transform="rotate(123.807 23.947 225.491)" stroke="#FFB300"/>
<rect x="377.142" y="228.563" width="12" height="12" transform="rotate(146.123 377.142 228.563)" stroke="#FFB300"/>
<rect x="23.9077" y="159.11" width="12" height="12" transform="rotate(146.123 23.9077 159.11)" stroke="#FFB300"/>
<rect x="379.072" y="167.608" width="12" height="12" transform="rotate(127.503 379.072 167.608)" stroke="#FFB300"/>
<rect x="22.1505" y="214.579" width="12" height="12" transform="rotate(127.503 22.1505 214.579)" stroke="#FFB300"/>
<rect x="379.158" y="216.156" width="12" height="12" transform="rotate(142.301 379.158 216.156)" stroke="#FFB300"/>
<rect x="22.0799" y="170.402" width="12" height="12" transform="rotate(142.301 22.0799 170.402)" stroke="#FFB300"/>
<rect x="380.287" y="180.009" width="12" height="12" transform="rotate(131.291 380.287 180.009)" stroke="#FFB300"/>
<rect x="21.0444" y="203.294" width="12" height="12" transform="rotate(131.291 21.0444 203.294)" stroke="#FFB300"/>
<rect x="380.31" y="204.059" width="12" height="12" transform="rotate(138.607 380.31 204.059)" stroke="#FFB300"/>
<rect x="21.0287" y="181.409" width="12" height="12" transform="rotate(138.607 21.0287 181.409)" stroke="#FFB300"/>
<rect x="380.684" y="192.197" width="12" height="12" transform="rotate(135 380.684 192.197)" stroke="#FFB300"/>
<rect x="20.6835" y="192.193" width="12" height="12" transform="rotate(135 20.6835 192.193)" stroke="#FFB300"/>
<rect x="380.684" y="192.195" width="12" height="12" transform="rotate(135 380.684 192.195)" stroke="#FFB300"/>
<rect x="380.676" y="192.203" width="12" height="12" transform="rotate(135 380.676 192.203)" stroke="#FFB300"/>
<rect x="20.6796" y="192.201" width="12" height="12" transform="rotate(135 20.6796 192.201)" stroke="#FFB300"/>
<rect x="380.676" y="192.201" width="12" height="12" transform="rotate(135 380.676 192.201)" stroke="#FFB300"/>
<circle cx="192.5" cy="191.5" r="169" stroke="#FFD000"/>
<circle cx="192.5" cy="191.5" r="191" stroke="#FFD000"/>
</svg>
