<svg width="384" height="384" viewBox="0 0 384 384" fill="none" xmlns="http://www.w3.org/2000/svg">
<path d="M210.415 199.878L269.025 192L210.415 184.122L246.322 136.846L199.341 172.979L191.513 114L183.684 172.979L136.703 136.846L172.61 184.122L114 192L172.61 199.878L136.703 247.154L183.684 211.021L191.513 270L199.341 211.021L246.322 247.154L210.415 199.878ZM234.066 149.179L200.642 182.813L199.686 175.621L234.066 149.179ZM148.952 149.179L182.375 182.813L175.228 183.775L148.952 149.179ZM148.952 234.821L182.367 201.195L183.323 208.387L148.952 234.821ZM191.513 252.564V192L184.42 199.137L131.335 192H191.513L184.42 184.863L191.513 131.444V192.008L198.605 184.871L251.69 192.008H191.513L198.605 199.145L191.513 252.564ZM200.642 201.195L207.789 200.233L234.066 234.821L200.642 201.195Z" fill="#FFB93A"/>
</svg>
