<svg width="384" height="384" viewBox="0 0 384 384" fill="none" xmlns="http://www.w3.org/2000/svg">
<path d="M260.477 108.597C260.602 108.404 260.859 108.348 261.053 108.473C261.053 108.473 261.053 108.473 260.827 108.823L260.601 109.173C260.408 109.048 260.352 108.79 260.477 108.597Z" fill="#FFD700"/>
<path fill-rule="evenodd" clip-rule="evenodd" d="M264.577 120.355V110.624C263.767 110.465 263.065 110.257 262.487 110.048C261.89 109.833 261.424 109.618 261.104 109.454C260.944 109.373 260.821 109.304 260.737 109.255C260.694 109.23 260.662 109.211 260.639 109.197L260.612 109.18L260.605 109.175L260.602 109.174L260.601 109.173C260.601 109.173 260.601 109.173 260.827 108.823L261.053 108.473L261.056 108.475L261.075 108.487C261.092 108.497 261.119 108.513 261.155 108.534C261.227 108.576 261.338 108.638 261.484 108.712C261.775 108.862 262.21 109.063 262.769 109.264C263.889 109.668 265.507 110.073 267.494 110.073C269.48 110.073 271.098 109.668 272.218 109.264C272.777 109.063 273.212 108.862 273.504 108.712C273.649 108.638 273.76 108.576 273.832 108.534C273.868 108.513 273.895 108.497 273.912 108.487L273.931 108.475L273.934 108.473C274.127 108.348 274.385 108.404 274.51 108.597C274.635 108.79 274.58 109.048 274.386 109.173L274.16 108.823C274.386 109.173 274.386 109.173 274.386 109.173L274.385 109.174L274.382 109.175L274.375 109.18L274.348 109.197C274.325 109.211 274.293 109.23 274.25 109.255C274.166 109.304 274.043 109.373 273.883 109.454C273.563 109.618 273.097 109.833 272.5 110.048C271.922 110.257 271.22 110.465 270.41 110.624V120.355C271.22 120.514 271.922 120.722 272.5 120.931C273.097 121.146 273.563 121.362 273.883 121.525C274.043 121.607 274.166 121.675 274.25 121.724C274.293 121.749 274.325 121.768 274.348 121.782L274.375 121.799L274.382 121.804L274.385 121.805L274.386 121.806C274.386 121.806 274.386 121.806 274.16 122.156L274.386 121.806C274.579 121.931 274.635 122.189 274.51 122.382C274.385 122.576 274.128 122.631 273.934 122.506L273.931 122.504L273.912 122.493C273.895 122.482 273.868 122.466 273.832 122.445C273.76 122.403 273.649 122.341 273.504 122.267C273.212 122.118 272.777 121.917 272.218 121.715C271.098 121.311 269.48 120.906 267.494 120.906C265.507 120.906 263.889 121.311 262.769 121.715C262.21 121.917 261.775 122.118 261.484 122.267C261.338 122.341 261.227 122.403 261.155 122.445C261.119 122.466 261.092 122.482 261.075 122.493L261.056 122.504L261.053 122.506L260.827 122.156C260.601 121.806 260.601 121.806 260.601 121.806L260.602 121.805L260.605 121.804L260.612 121.799L260.639 121.782C260.662 121.768 260.694 121.749 260.737 121.724C260.821 121.675 260.944 121.607 261.104 121.525C261.424 121.362 261.89 121.146 262.487 120.931C263.065 120.722 263.767 120.514 264.577 120.355ZM265.41 120.216C266.052 120.127 266.749 120.073 267.494 120.073C268.238 120.073 268.935 120.127 269.577 120.216V110.764C268.935 110.852 268.238 110.906 267.494 110.906C266.749 110.906 266.052 110.852 265.41 110.764V120.216Z" fill="#FFD700"/>
<path d="M261.053 122.506C261.053 122.506 261.053 122.506 261.053 122.506Z" fill="#FFD700"/>
<path d="M261.053 122.506C260.86 122.631 260.602 122.576 260.477 122.382C260.352 122.189 260.408 121.931 260.601 121.806L260.827 122.156C261.053 122.506 261.053 122.506 261.053 122.506Z" fill="#FFD700"/>
<path d="M165.939 84.418C166.876 83.3148 167.806 82.8493 168.544 82.6717C168.91 82.5836 169.22 82.5684 169.45 82.5759C169.564 82.5797 169.658 82.5891 169.726 82.5975C169.753 82.6008 169.777 82.6041 169.794 82.6064L169.804 82.6078L169.807 82.6083C170.357 82.6146 170.99 82.8664 171.485 83.275C171.993 83.6939 172.409 84.3222 172.409 85.1034C172.409 85.7718 172.291 86.3832 171.953 86.8927C171.611 87.4082 171.079 87.7671 170.352 87.9953C170.133 88.0643 169.899 87.9422 169.83 87.7226C169.761 87.5031 169.883 87.2692 170.103 87.2003C170.7 87.0128 171.049 86.748 171.259 86.4321C171.472 86.1102 171.576 85.6823 171.576 85.1034C171.576 84.6376 171.329 84.2265 170.955 83.9179C170.575 83.6042 170.114 83.4415 169.786 83.4415C169.747 83.4415 169.703 83.4352 169.693 83.4338L169.692 83.4335L169.678 83.4316C169.661 83.4294 169.645 83.4271 169.624 83.4246C169.574 83.4183 169.506 83.4115 169.422 83.4088C169.255 83.4033 169.021 83.414 168.739 83.4819C168.181 83.6161 167.403 83.982 166.575 84.9574C166.001 85.6334 165.581 86.5453 165.305 87.44C165.029 88.3348 164.909 89.1727 164.909 89.6764V97.9909C164.909 98.221 164.722 98.4076 164.492 98.4076C164.262 98.4076 164.076 98.221 164.076 97.9909V89.6575C164.076 89.1496 163.961 88.3074 163.7 87.4093C163.439 86.5106 163.042 85.5954 162.5 84.9178C161.718 83.9408 160.987 83.5787 160.47 83.4467C160.208 83.3798 159.991 83.3694 159.837 83.3747C159.76 83.3774 159.698 83.3841 159.651 83.3902C159.632 83.3927 159.617 83.3949 159.601 83.3972L159.588 83.3991L159.587 83.3993C159.579 83.4005 159.533 83.4076 159.492 83.4076C159.196 83.4076 158.77 83.5648 158.412 83.8774C158.063 84.1831 157.826 84.597 157.826 85.0742C157.826 85.658 157.924 86.091 158.127 86.4159C158.325 86.7323 158.652 86.9937 159.207 87.1789C159.426 87.2517 159.544 87.4877 159.471 87.706C159.398 87.9243 159.162 88.0423 158.944 87.9695C158.249 87.738 157.743 87.3744 157.42 86.8576C157.102 86.3491 156.992 85.7404 156.992 85.0742C156.992 84.3014 157.38 83.6737 157.864 83.2502C158.333 82.8397 158.937 82.5818 159.469 82.5744L160.676 82.6393C161.383 82.8198 162.266 83.291 163.151 84.3973C163.787 85.1921 164.223 86.2214 164.501 87.1768C164.503 87.1842 164.505 87.1917 164.507 87.1992C164.508 87.1976 164.508 87.196 164.509 87.1944C164.803 86.2392 165.266 85.2111 165.939 84.418Z" fill="#FFD700"/>
<path fill-rule="evenodd" clip-rule="evenodd" d="M212.574 81.8229C212.574 81.5928 212.761 81.4062 212.991 81.4062H213.31C214.547 81.4062 215.746 81.8271 216.712 82.5996C217.218 83.004 217.647 83.4952 217.98 84.0502L218.341 84.6526C218.638 85.1479 218.881 85.6742 219.063 86.2222L219.187 86.5943C219.6 86.4719 220.038 86.4063 220.491 86.4063C220.944 86.4063 221.381 86.4719 221.795 86.5943L221.919 86.2222C222.101 85.6742 222.343 85.1479 222.641 84.6526L223.002 84.0502C223.335 83.4952 223.764 83.004 224.27 82.5996C225.235 81.8271 226.435 81.4062 227.672 81.4062H227.991C228.221 81.4062 228.408 81.5928 228.408 81.8229C228.408 82.053 228.221 82.2396 227.991 82.2396H227.672C226.624 82.2396 225.608 82.596 224.79 83.2503C224.362 83.5928 223.999 84.0089 223.716 84.479L223.355 85.0813C223.089 85.5245 222.873 85.9954 222.709 86.4857L222.57 86.9038C224.056 87.6616 225.074 89.2067 225.074 90.9896C225.074 93.5209 223.022 95.5729 220.491 95.5729C217.96 95.5729 215.908 93.5209 215.908 90.9896C215.908 89.2067 216.926 87.6616 218.412 86.9038L218.273 86.4857C218.109 85.9954 217.893 85.5245 217.627 85.0813L217.265 84.479C216.983 84.0089 216.62 83.5928 216.191 83.2503C215.374 82.596 214.357 82.2396 213.31 82.2396H212.991C212.761 82.2396 212.574 82.053 212.574 81.8229ZM220.491 94.7396C222.562 94.7396 224.241 93.0607 224.241 90.9896C224.241 88.9185 222.562 87.2396 220.491 87.2396C218.42 87.2396 216.741 88.9185 216.741 90.9896C216.741 93.0607 218.42 94.7396 220.491 94.7396Z" fill="#FFD700"/>
<path d="M111.138 108.618C111.344 108.515 111.594 108.599 111.697 108.805L112.568 110.547C113.309 112.028 113.728 113.627 113.823 115.241H117.159C117.254 113.627 117.673 112.028 118.414 110.547L119.285 108.805C119.388 108.599 119.638 108.515 119.844 108.618C120.05 108.721 120.133 108.971 120.03 109.177L119.159 110.919C118.477 112.284 118.088 113.755 117.994 115.241H120.491C120.721 115.241 120.908 115.428 120.908 115.658C120.908 115.888 120.721 116.074 120.491 116.074H117.972C117.989 117.589 118.311 119.102 118.941 120.52L120.038 122.988C120.132 123.199 120.037 123.445 119.827 123.538C119.616 123.632 119.37 123.537 119.277 123.327L118.18 120.858C117.502 119.333 117.155 117.704 117.139 116.074H113.843C113.826 117.704 113.48 119.333 112.802 120.858L111.705 123.327C111.612 123.537 111.365 123.632 111.155 123.538C110.945 123.445 110.85 123.199 110.943 122.988L112.041 120.52C112.671 119.102 112.993 117.589 113.01 116.074H110.491C110.261 116.074 110.074 115.888 110.074 115.658C110.074 115.428 110.261 115.241 110.491 115.241H112.988C112.894 113.755 112.505 112.284 111.823 110.919L110.952 109.177C110.849 108.971 110.932 108.721 111.138 108.618Z" fill="#FFD700"/>
<path d="M88.1589 159.879C88.3256 159.657 88.6589 159.657 88.8256 159.879L89.9922 161.434C90.4922 162.101 91.4922 162.101 91.9922 161.434L93.0964 159.962C93.272 159.728 93.6279 159.743 93.783 159.991L95.2222 162.294C95.3442 162.489 95.6013 162.549 95.7964 162.427C95.9915 162.305 96.0509 162.048 95.9289 161.853L94.4897 159.55C94.0243 158.805 92.9565 158.76 92.4297 159.462L91.3256 160.934C91.1589 161.157 90.8256 161.157 90.6589 160.934L89.4922 159.379C88.9922 158.712 87.9922 158.712 87.4922 159.379L86.3256 160.934C86.1589 161.157 85.8256 161.157 85.6589 160.934L84.5548 159.462C84.028 158.76 82.9601 158.805 82.4948 159.55L81.0556 161.853C80.9336 162.048 80.9929 162.305 81.1881 162.427C81.3832 162.549 81.6403 162.489 81.7622 162.294L83.2014 159.991C83.3566 159.743 83.7125 159.728 83.8881 159.962L84.9922 161.434C85.4922 162.101 86.4922 162.101 86.9922 161.434L88.1589 159.879Z" fill="#FFD700"/>
<path d="M88.1589 164.462C88.3256 164.24 88.6589 164.24 88.8256 164.462L89.9922 166.018C90.4922 166.684 91.4922 166.684 91.9922 166.018L93.0964 164.546C93.272 164.311 93.6279 164.327 93.783 164.575L95.2222 166.878C95.3442 167.073 95.6013 167.132 95.7964 167.01C95.9915 166.888 96.0509 166.631 95.9289 166.436L94.4897 164.133C94.0243 163.389 92.9565 163.343 92.4297 164.046L91.3256 165.518C91.1589 165.74 90.8256 165.74 90.6589 165.518L89.4922 163.962C88.9922 163.296 87.9922 163.296 87.4922 163.962L86.3256 165.518C86.1589 165.74 85.8256 165.74 85.6589 165.518L84.5548 164.046C84.028 163.343 82.9601 163.389 82.4948 164.133L81.0556 166.436C80.9336 166.631 80.9929 166.888 81.1881 167.01C81.3832 167.132 81.6403 167.073 81.7622 166.878L83.2014 164.575C83.3566 164.327 83.7125 164.311 83.8881 164.546L84.9922 166.018C85.4922 166.684 86.4922 166.684 86.9922 166.018L88.1589 164.462Z" fill="#FFD700"/>
<path d="M81.4102 212.824L82.0513 213.038C82.4517 213.171 82.8155 213.396 83.1139 213.695C83.6237 214.204 83.9102 214.896 83.9102 215.617V215.741M83.9102 221.574V215.741M83.9102 215.741L85.2587 214.055C85.4695 213.792 85.7197 213.562 86.0005 213.375C86.5393 213.016 87.1724 212.824 87.8199 212.824H88.2337C88.6786 212.824 89.1173 212.928 89.5152 213.127L89.7301 213.234C90.2722 213.505 90.6845 213.981 90.8762 214.556C90.9539 214.789 90.9935 215.033 90.9935 215.278V220.465C90.9935 220.649 91.0087 220.832 91.0388 221.013L91.2411 222.227C91.2877 222.506 91.3708 222.776 91.487 223.031M91.487 223.031L92.0897 222.202C92.1921 222.062 92.3053 221.929 92.4284 221.806L92.8711 221.363C93.2696 220.965 93.8101 220.741 94.3737 220.741H94.3973C95.1291 220.741 95.8072 221.125 96.1837 221.752C96.5796 222.412 96.5796 223.236 96.1837 223.896C95.8072 224.524 95.1291 224.908 94.3973 224.908H94.1331C93.4568 224.908 92.8082 224.639 92.33 224.161L92.1372 223.968C91.8646 223.695 91.6451 223.378 91.487 223.031ZM91.487 223.031L89.1886 226.191C89.0056 226.443 88.7649 226.647 88.4867 226.786C88.2172 226.921 87.9199 226.991 87.6185 226.991H85.9935" stroke="#FFD700" stroke-linecap="round"/>
<path d="M121.709 260.663C121.689 260.614 121.659 260.568 121.619 260.528L121.324 260.406H114.658C114.427 260.406 114.241 260.593 114.241 260.823C114.241 261.053 114.427 261.24 114.658 261.24H120.318L112.574 268.984L109.952 266.362C109.789 266.199 109.526 266.199 109.363 266.362C109.2 266.524 109.2 266.788 109.363 266.951L111.985 269.573L107.696 273.862C107.534 274.024 107.534 274.288 107.696 274.451C107.859 274.614 108.123 274.614 108.286 274.451L112.574 270.162L115.196 272.784C115.359 272.947 115.623 272.947 115.786 272.784C115.948 272.621 115.948 272.358 115.786 272.195L113.163 269.573L120.908 261.829V267.073C120.908 267.303 121.094 267.49 121.324 267.49C121.554 267.49 121.741 267.303 121.741 267.073V260.823C121.741 260.766 121.73 260.713 121.709 260.663Z" fill="#FFD700"/>
<path d="M157.984 289.563C157.84 289.383 157.578 289.354 157.399 289.498C157.219 289.641 157.19 289.904 157.334 290.083L158.909 292.052V300.656H159.742V292.058L161.094 290.446C161.261 290.247 161.567 290.247 161.733 290.447L163.076 292.057V300.656H163.909V292.057L165.255 290.441C165.422 290.241 165.729 290.241 165.896 290.441L167.146 291.941C167.208 292.016 167.242 292.111 167.242 292.208V298.572L167.242 298.573V300.53C167.242 300.966 167.371 301.393 167.613 301.756C168.023 302.37 168.713 302.74 169.452 302.74H170.159V303.788C170.159 303.863 170.249 303.9 170.301 303.847L171.767 302.382C171.799 302.349 171.799 302.297 171.767 302.264L170.301 300.799C170.249 300.746 170.159 300.783 170.159 300.857V301.906H169.452C168.992 301.906 168.562 301.676 168.307 301.293C168.156 301.067 168.076 300.802 168.076 300.53L168.076 292.208C168.076 291.916 167.973 291.632 167.786 291.408L166.536 289.908C166.036 289.308 165.115 289.308 164.615 289.908L163.492 291.255L162.374 289.913C161.875 289.315 160.956 289.313 160.455 289.91L159.333 291.249L157.984 289.563Z" fill="#FFD700"/>
<path d="M223.41 297.99C223.41 297.76 223.597 297.574 223.827 297.574H223.801C224.839 296.657 225.493 295.317 225.493 293.824C225.493 291.062 223.255 288.824 220.493 288.824C217.732 288.824 215.493 291.062 215.493 293.824C215.493 295.317 216.148 296.657 217.186 297.574H217.16C217.39 297.574 217.577 297.76 217.577 297.99C217.577 298.22 217.39 298.407 217.16 298.407H213.827C213.597 298.407 213.41 298.22 213.41 297.99C213.41 297.76 213.597 297.574 213.827 297.574H216.025C215.173 296.56 214.66 295.251 214.66 293.824C214.66 290.602 217.272 287.99 220.493 287.99C223.715 287.99 226.327 290.602 226.327 293.824C226.327 295.251 225.814 296.56 224.962 297.574H227.16C227.39 297.574 227.577 297.76 227.577 297.99C227.577 298.22 227.39 298.407 227.16 298.407H223.827C223.597 298.407 223.41 298.22 223.41 297.99Z" fill="#FFD700"/>
<path d="M213.827 300.907C213.597 300.907 213.41 301.093 213.41 301.324C213.41 301.554 213.597 301.74 213.827 301.74H227.16C227.39 301.74 227.577 301.554 227.577 301.324C227.577 301.093 227.39 300.907 227.16 300.907H213.827Z" fill="#FFD700"/>
<path fill-rule="evenodd" clip-rule="evenodd" d="M261.731 261.498C261.91 261.354 262.173 261.383 262.316 261.563L263.665 263.249L264.787 261.91C265.288 261.313 266.207 261.315 266.706 261.913L267.824 263.255L268.947 261.908C269.447 261.308 270.368 261.308 270.868 261.908L272.118 263.408C272.305 263.632 272.408 263.916 272.408 264.208V264.992C272.686 264.725 272.928 264.511 273.155 264.348C273.585 264.042 273.981 263.906 274.491 263.906C274.82 263.906 275.194 264.062 275.527 264.319C275.869 264.583 276.198 264.977 276.434 265.508C276.909 266.576 276.99 268.155 276.128 270.311C275.499 271.884 274.497 272.934 273.446 273.614C273.886 273.96 274.504 274.229 275.37 274.325C275.599 274.351 275.764 274.557 275.738 274.786C275.713 275.014 275.507 275.179 275.278 275.154C274.101 275.023 273.258 274.603 272.675 274.048C271.611 274.562 270.578 274.74 269.908 274.74C269.677 274.74 269.491 274.553 269.491 274.323C269.491 274.093 269.677 273.906 269.908 273.906C270.443 273.906 271.264 273.77 272.131 273.383C272.13 273.381 272.129 273.38 272.128 273.378C271.599 272.537 271.501 271.597 271.574 270.965V264.208C271.574 264.11 271.54 264.016 271.478 263.941L270.228 262.441C270.061 262.241 269.754 262.241 269.587 262.441L268.241 264.057V272.656C268.241 272.886 268.054 273.073 267.824 273.073C267.594 273.073 267.408 272.886 267.408 272.656V264.057L266.065 262.447C265.899 262.247 265.593 262.247 265.426 262.446L264.074 264.058V272.656C264.074 272.886 263.888 273.073 263.658 273.073C263.427 273.073 263.241 272.886 263.241 272.656V264.052L261.666 262.083C261.522 261.904 261.551 261.641 261.731 261.498ZM272.408 270.995C272.408 270.991 272.408 270.987 272.408 270.983L272.408 266.162C272.973 265.598 273.331 265.247 273.639 265.027C273.939 264.813 274.168 264.74 274.491 264.74C274.578 264.74 274.777 264.792 275.017 264.978C275.248 265.156 275.492 265.439 275.673 265.846C276.031 266.653 276.158 267.99 275.354 270.002C274.775 271.45 273.837 272.395 272.87 272.992C272.858 272.973 272.845 272.954 272.833 272.935C272.512 272.424 272.396 271.858 272.387 271.406H272.408V270.995Z" fill="#FFD700"/>
<rect x="101.492" y="101.49" width="181" height="181" stroke="#FFB300" stroke-width="2"/>
<rect x="158.866" y="68.366" width="181" height="181" transform="rotate(30 158.866 68.366)" stroke="#FFB300" stroke-width="2"/>
<rect x="225.118" y="68.366" width="181" height="181" transform="rotate(60 225.118 68.366)" stroke="#FFB300" stroke-width="2"/>
<path d="M260.477 108.597C260.602 108.404 260.859 108.348 261.053 108.473C261.053 108.473 261.053 108.473 260.827 108.823L260.601 109.173C260.408 109.048 260.352 108.79 260.477 108.597Z" fill="#FFD700"/>
<path fill-rule="evenodd" clip-rule="evenodd" d="M264.577 120.355V110.624C263.767 110.465 263.065 110.257 262.487 110.048C261.89 109.833 261.424 109.618 261.104 109.454C260.944 109.373 260.821 109.304 260.737 109.255C260.694 109.23 260.662 109.211 260.639 109.197L260.612 109.18L260.605 109.175L260.602 109.174L260.601 109.173C260.601 109.173 260.601 109.173 260.827 108.823L261.053 108.473L261.056 108.475L261.075 108.487C261.092 108.497 261.119 108.513 261.155 108.534C261.227 108.576 261.338 108.638 261.484 108.712C261.775 108.862 262.21 109.063 262.769 109.264C263.889 109.668 265.507 110.073 267.494 110.073C269.48 110.073 271.098 109.668 272.218 109.264C272.777 109.063 273.212 108.862 273.504 108.712C273.649 108.638 273.76 108.576 273.832 108.534C273.868 108.513 273.895 108.497 273.912 108.487L273.931 108.475L273.934 108.473C274.127 108.348 274.385 108.404 274.51 108.597C274.635 108.79 274.58 109.048 274.386 109.173L274.16 108.823C274.386 109.173 274.386 109.173 274.386 109.173L274.385 109.174L274.382 109.175L274.375 109.18L274.348 109.197C274.325 109.211 274.293 109.23 274.25 109.255C274.166 109.304 274.043 109.373 273.883 109.454C273.563 109.618 273.097 109.833 272.5 110.048C271.922 110.257 271.22 110.465 270.41 110.624V120.355C271.22 120.514 271.922 120.722 272.5 120.931C273.097 121.146 273.563 121.362 273.883 121.525C274.043 121.607 274.166 121.675 274.25 121.724C274.293 121.749 274.325 121.768 274.348 121.782L274.375 121.799L274.382 121.804L274.385 121.805L274.386 121.806C274.386 121.806 274.386 121.806 274.16 122.156L274.386 121.806C274.579 121.931 274.635 122.189 274.51 122.382C274.385 122.576 274.128 122.631 273.934 122.506L273.931 122.504L273.912 122.493C273.895 122.482 273.868 122.466 273.832 122.445C273.76 122.403 273.649 122.341 273.504 122.267C273.212 122.118 272.777 121.917 272.218 121.715C271.098 121.311 269.48 120.906 267.494 120.906C265.507 120.906 263.889 121.311 262.769 121.715C262.21 121.917 261.775 122.118 261.484 122.267C261.338 122.341 261.227 122.403 261.155 122.445C261.119 122.466 261.092 122.482 261.075 122.493L261.056 122.504L261.053 122.506L260.827 122.156C260.601 121.806 260.601 121.806 260.601 121.806L260.602 121.805L260.605 121.804L260.612 121.799L260.639 121.782C260.662 121.768 260.694 121.749 260.737 121.724C260.821 121.675 260.944 121.607 261.104 121.525C261.424 121.362 261.89 121.146 262.487 120.931C263.065 120.722 263.767 120.514 264.577 120.355ZM265.41 120.216C266.052 120.127 266.749 120.073 267.494 120.073C268.238 120.073 268.935 120.127 269.577 120.216V110.764C268.935 110.852 268.238 110.906 267.494 110.906C266.749 110.906 266.052 110.852 265.41 110.764V120.216Z" fill="#FFD700"/>
<path d="M261.053 122.506C261.053 122.506 261.053 122.506 261.053 122.506Z" fill="#FFD700"/>
<path d="M261.053 122.506C260.86 122.631 260.602 122.576 260.477 122.382C260.352 122.189 260.408 121.931 260.601 121.806L260.827 122.156C261.053 122.506 261.053 122.506 261.053 122.506Z" fill="#FFD700"/>
<path d="M165.939 84.418C166.876 83.3148 167.806 82.8493 168.544 82.6717C168.91 82.5836 169.22 82.5684 169.45 82.5759C169.564 82.5797 169.658 82.5891 169.726 82.5975C169.753 82.6008 169.777 82.6041 169.794 82.6064L169.804 82.6078L169.807 82.6083C170.357 82.6146 170.99 82.8664 171.485 83.275C171.993 83.6939 172.409 84.3222 172.409 85.1034C172.409 85.7718 172.291 86.3832 171.953 86.8927C171.611 87.4082 171.079 87.7671 170.352 87.9953C170.133 88.0643 169.899 87.9422 169.83 87.7226C169.761 87.5031 169.883 87.2692 170.103 87.2003C170.7 87.0128 171.049 86.748 171.259 86.4321C171.472 86.1102 171.576 85.6823 171.576 85.1034C171.576 84.6376 171.329 84.2265 170.955 83.9179C170.575 83.6042 170.114 83.4415 169.786 83.4415C169.747 83.4415 169.703 83.4352 169.693 83.4338L169.692 83.4335L169.678 83.4316C169.661 83.4294 169.645 83.4271 169.624 83.4246C169.574 83.4183 169.506 83.4115 169.422 83.4088C169.255 83.4033 169.021 83.414 168.739 83.4819C168.181 83.6161 167.403 83.982 166.575 84.9574C166.001 85.6334 165.581 86.5453 165.305 87.44C165.029 88.3348 164.909 89.1727 164.909 89.6764V97.9909C164.909 98.221 164.722 98.4076 164.492 98.4076C164.262 98.4076 164.076 98.221 164.076 97.9909V89.6575C164.076 89.1496 163.961 88.3074 163.7 87.4093C163.439 86.5106 163.042 85.5954 162.5 84.9178C161.718 83.9408 160.987 83.5787 160.47 83.4467C160.208 83.3798 159.991 83.3694 159.837 83.3747C159.76 83.3774 159.698 83.3841 159.651 83.3902C159.632 83.3927 159.617 83.3949 159.601 83.3972L159.588 83.3991L159.587 83.3993C159.579 83.4005 159.533 83.4076 159.492 83.4076C159.196 83.4076 158.77 83.5648 158.412 83.8774C158.063 84.1831 157.826 84.597 157.826 85.0742C157.826 85.658 157.924 86.091 158.127 86.4159C158.325 86.7323 158.652 86.9937 159.207 87.1789C159.426 87.2517 159.544 87.4877 159.471 87.706C159.398 87.9243 159.162 88.0423 158.944 87.9695C158.249 87.738 157.743 87.3744 157.42 86.8576C157.102 86.3491 156.992 85.7404 156.992 85.0742C156.992 84.3014 157.38 83.6737 157.864 83.2502C158.333 82.8397 158.937 82.5818 159.469 82.5744L160.676 82.6393C161.383 82.8198 162.266 83.291 163.151 84.3973C163.787 85.1921 164.223 86.2214 164.501 87.1768C164.503 87.1842 164.505 87.1917 164.507 87.1992C164.508 87.1976 164.508 87.196 164.509 87.1944C164.803 86.2392 165.266 85.2111 165.939 84.418Z" fill="#FFD700"/>
<path fill-rule="evenodd" clip-rule="evenodd" d="M212.574 81.8229C212.574 81.5928 212.761 81.4062 212.991 81.4062H213.31C214.547 81.4062 215.746 81.8271 216.712 82.5996C217.218 83.004 217.647 83.4952 217.98 84.0502L218.341 84.6526C218.638 85.1479 218.881 85.6742 219.063 86.2222L219.187 86.5943C219.6 86.4719 220.038 86.4063 220.491 86.4063C220.944 86.4063 221.381 86.4719 221.795 86.5943L221.919 86.2222C222.101 85.6742 222.343 85.1479 222.641 84.6526L223.002 84.0502C223.335 83.4952 223.764 83.004 224.27 82.5996C225.235 81.8271 226.435 81.4062 227.672 81.4062H227.991C228.221 81.4062 228.408 81.5928 228.408 81.8229C228.408 82.053 228.221 82.2396 227.991 82.2396H227.672C226.624 82.2396 225.608 82.596 224.79 83.2503C224.362 83.5928 223.999 84.0089 223.716 84.479L223.355 85.0813C223.089 85.5245 222.873 85.9954 222.709 86.4857L222.57 86.9038C224.056 87.6616 225.074 89.2067 225.074 90.9896C225.074 93.5209 223.022 95.5729 220.491 95.5729C217.96 95.5729 215.908 93.5209 215.908 90.9896C215.908 89.2067 216.926 87.6616 218.412 86.9038L218.273 86.4857C218.109 85.9954 217.893 85.5245 217.627 85.0813L217.265 84.479C216.983 84.0089 216.62 83.5928 216.191 83.2503C215.374 82.596 214.357 82.2396 213.31 82.2396H212.991C212.761 82.2396 212.574 82.053 212.574 81.8229ZM220.491 94.7396C222.562 94.7396 224.241 93.0607 224.241 90.9896C224.241 88.9185 222.562 87.2396 220.491 87.2396C218.42 87.2396 216.741 88.9185 216.741 90.9896C216.741 93.0607 218.42 94.7396 220.491 94.7396Z" fill="#FFD700"/>
<path d="M111.138 108.618C111.344 108.515 111.594 108.599 111.697 108.805L112.568 110.547C113.309 112.028 113.728 113.627 113.823 115.241H117.159C117.254 113.627 117.673 112.028 118.414 110.547L119.285 108.805C119.388 108.599 119.638 108.515 119.844 108.618C120.05 108.721 120.133 108.971 120.03 109.177L119.159 110.919C118.477 112.284 118.088 113.755 117.994 115.241H120.491C120.721 115.241 120.908 115.428 120.908 115.658C120.908 115.888 120.721 116.074 120.491 116.074H117.972C117.989 117.589 118.311 119.102 118.941 120.52L120.038 122.988C120.132 123.199 120.037 123.445 119.827 123.538C119.616 123.632 119.37 123.537 119.277 123.327L118.18 120.858C117.502 119.333 117.155 117.704 117.139 116.074H113.843C113.826 117.704 113.48 119.333 112.802 120.858L111.705 123.327C111.612 123.537 111.365 123.632 111.155 123.538C110.945 123.445 110.85 123.199 110.943 122.988L112.041 120.52C112.671 119.102 112.993 117.589 113.01 116.074H110.491C110.261 116.074 110.074 115.888 110.074 115.658C110.074 115.428 110.261 115.241 110.491 115.241H112.988C112.894 113.755 112.505 112.284 111.823 110.919L110.952 109.177C110.849 108.971 110.932 108.721 111.138 108.618Z" fill="#FFD700"/>
<path d="M88.1589 159.879C88.3256 159.657 88.6589 159.657 88.8256 159.879L89.9922 161.434C90.4922 162.101 91.4922 162.101 91.9922 161.434L93.0964 159.962C93.272 159.728 93.6279 159.743 93.783 159.991L95.2222 162.294C95.3442 162.489 95.6013 162.549 95.7964 162.427C95.9915 162.305 96.0509 162.048 95.9289 161.853L94.4897 159.55C94.0243 158.805 92.9565 158.76 92.4297 159.462L91.3256 160.934C91.1589 161.157 90.8256 161.157 90.6589 160.934L89.4922 159.379C88.9922 158.712 87.9922 158.712 87.4922 159.379L86.3256 160.934C86.1589 161.157 85.8256 161.157 85.6589 160.934L84.5548 159.462C84.028 158.76 82.9601 158.805 82.4948 159.55L81.0556 161.853C80.9336 162.048 80.9929 162.305 81.1881 162.427C81.3832 162.549 81.6403 162.489 81.7622 162.294L83.2014 159.991C83.3566 159.743 83.7125 159.728 83.8881 159.962L84.9922 161.434C85.4922 162.101 86.4922 162.101 86.9922 161.434L88.1589 159.879Z" fill="#FFD700"/>
<path d="M88.1589 164.462C88.3256 164.24 88.6589 164.24 88.8256 164.462L89.9922 166.018C90.4922 166.684 91.4922 166.684 91.9922 166.018L93.0964 164.546C93.272 164.311 93.6279 164.327 93.783 164.575L95.2222 166.878C95.3442 167.073 95.6013 167.132 95.7964 167.01C95.9915 166.888 96.0509 166.631 95.9289 166.436L94.4897 164.133C94.0243 163.389 92.9565 163.343 92.4297 164.046L91.3256 165.518C91.1589 165.74 90.8256 165.74 90.6589 165.518L89.4922 163.962C88.9922 163.296 87.9922 163.296 87.4922 163.962L86.3256 165.518C86.1589 165.74 85.8256 165.74 85.6589 165.518L84.5548 164.046C84.028 163.343 82.9601 163.389 82.4948 164.133L81.0556 166.436C80.9336 166.631 80.9929 166.888 81.1881 167.01C81.3832 167.132 81.6403 167.073 81.7622 166.878L83.2014 164.575C83.3566 164.327 83.7125 164.311 83.8881 164.546L84.9922 166.018C85.4922 166.684 86.4922 166.684 86.9922 166.018L88.1589 164.462Z" fill="#FFD700"/>
<path d="M81.4102 212.824L82.0513 213.038C82.4517 213.171 82.8155 213.396 83.1139 213.695C83.6237 214.204 83.9102 214.896 83.9102 215.617V215.741M83.9102 221.574V215.741M83.9102 215.741L85.2587 214.055C85.4695 213.792 85.7197 213.562 86.0005 213.375C86.5393 213.016 87.1724 212.824 87.8199 212.824H88.2337C88.6786 212.824 89.1173 212.928 89.5152 213.127L89.7301 213.234C90.2722 213.505 90.6845 213.981 90.8762 214.556C90.9539 214.789 90.9935 215.033 90.9935 215.278V220.465C90.9935 220.649 91.0087 220.832 91.0388 221.013L91.2411 222.227C91.2877 222.506 91.3708 222.776 91.487 223.031M91.487 223.031L92.0897 222.202C92.1921 222.062 92.3053 221.929 92.4284 221.806L92.8711 221.363C93.2696 220.965 93.8101 220.741 94.3737 220.741H94.3973C95.1291 220.741 95.8072 221.125 96.1837 221.752C96.5796 222.412 96.5796 223.236 96.1837 223.896C95.8072 224.524 95.1291 224.908 94.3973 224.908H94.1331C93.4568 224.908 92.8082 224.639 92.33 224.161L92.1372 223.968C91.8646 223.695 91.6451 223.378 91.487 223.031ZM91.487 223.031L89.1886 226.191C89.0056 226.443 88.7649 226.647 88.4867 226.786C88.2172 226.921 87.9199 226.991 87.6185 226.991H85.9935" stroke="#FFD700" stroke-linecap="round"/>
<path d="M121.709 260.663C121.689 260.614 121.659 260.568 121.619 260.528L121.324 260.406H114.658C114.427 260.406 114.241 260.593 114.241 260.823C114.241 261.053 114.427 261.24 114.658 261.24H120.318L112.574 268.984L109.952 266.362C109.789 266.199 109.526 266.199 109.363 266.362C109.2 266.524 109.2 266.788 109.363 266.951L111.985 269.573L107.696 273.862C107.534 274.024 107.534 274.288 107.696 274.451C107.859 274.614 108.123 274.614 108.286 274.451L112.574 270.162L115.196 272.784C115.359 272.947 115.623 272.947 115.786 272.784C115.948 272.621 115.948 272.358 115.786 272.195L113.163 269.573L120.908 261.829V267.073C120.908 267.303 121.094 267.49 121.324 267.49C121.554 267.49 121.741 267.303 121.741 267.073V260.823C121.741 260.766 121.73 260.713 121.709 260.663Z" fill="#FFD700"/>
<path d="M157.984 289.563C157.84 289.383 157.578 289.354 157.399 289.498C157.219 289.641 157.19 289.904 157.334 290.083L158.909 292.052V300.656H159.742V292.058L161.094 290.446C161.261 290.247 161.567 290.247 161.733 290.447L163.076 292.057V300.656H163.909V292.057L165.255 290.441C165.422 290.241 165.729 290.241 165.896 290.441L167.146 291.941C167.208 292.016 167.242 292.111 167.242 292.208V298.572L167.242 298.573V300.53C167.242 300.966 167.371 301.393 167.613 301.756C168.023 302.37 168.713 302.74 169.452 302.74H170.159V303.788C170.159 303.863 170.249 303.9 170.301 303.847L171.767 302.382C171.799 302.349 171.799 302.297 171.767 302.264L170.301 300.799C170.249 300.746 170.159 300.783 170.159 300.857V301.906H169.452C168.992 301.906 168.562 301.676 168.307 301.293C168.156 301.067 168.076 300.802 168.076 300.53L168.076 292.208C168.076 291.916 167.973 291.632 167.786 291.408L166.536 289.908C166.036 289.308 165.115 289.308 164.615 289.908L163.492 291.255L162.374 289.913C161.875 289.315 160.956 289.313 160.455 289.91L159.333 291.249L157.984 289.563Z" fill="#FFD700"/>
<path d="M223.41 297.99C223.41 297.76 223.597 297.574 223.827 297.574H223.801C224.839 296.657 225.493 295.317 225.493 293.824C225.493 291.062 223.255 288.824 220.493 288.824C217.732 288.824 215.493 291.062 215.493 293.824C215.493 295.317 216.148 296.657 217.186 297.574H217.16C217.39 297.574 217.577 297.76 217.577 297.99C217.577 298.22 217.39 298.407 217.16 298.407H213.827C213.597 298.407 213.41 298.22 213.41 297.99C213.41 297.76 213.597 297.574 213.827 297.574H216.025C215.173 296.56 214.66 295.251 214.66 293.824C214.66 290.602 217.272 287.99 220.493 287.99C223.715 287.99 226.327 290.602 226.327 293.824C226.327 295.251 225.814 296.56 224.962 297.574H227.16C227.39 297.574 227.577 297.76 227.577 297.99C227.577 298.22 227.39 298.407 227.16 298.407H223.827C223.597 298.407 223.41 298.22 223.41 297.99Z" fill="#FFD700"/>
<path d="M213.827 300.907C213.597 300.907 213.41 301.093 213.41 301.324C213.41 301.554 213.597 301.74 213.827 301.74H227.16C227.39 301.74 227.577 301.554 227.577 301.324C227.577 301.093 227.39 300.907 227.16 300.907H213.827Z" fill="#FFD700"/>
<path fill-rule="evenodd" clip-rule="evenodd" d="M261.731 261.498C261.91 261.354 262.173 261.383 262.316 261.563L263.665 263.249L264.787 261.91C265.288 261.313 266.207 261.315 266.706 261.913L267.824 263.255L268.947 261.908C269.447 261.308 270.368 261.308 270.868 261.908L272.118 263.408C272.305 263.632 272.408 263.916 272.408 264.208V264.992C272.686 264.725 272.928 264.511 273.155 264.348C273.585 264.042 273.981 263.906 274.491 263.906C274.82 263.906 275.194 264.062 275.527 264.319C275.869 264.583 276.198 264.977 276.434 265.508C276.909 266.576 276.99 268.155 276.128 270.311C275.499 271.884 274.497 272.934 273.446 273.614C273.886 273.96 274.504 274.229 275.37 274.325C275.599 274.351 275.764 274.557 275.738 274.786C275.713 275.014 275.507 275.179 275.278 275.154C274.101 275.023 273.258 274.603 272.675 274.048C271.611 274.562 270.578 274.74 269.908 274.74C269.677 274.74 269.491 274.553 269.491 274.323C269.491 274.093 269.677 273.906 269.908 273.906C270.443 273.906 271.264 273.77 272.131 273.383C272.13 273.381 272.129 273.38 272.128 273.378C271.599 272.537 271.501 271.597 271.574 270.965V264.208C271.574 264.11 271.54 264.016 271.478 263.941L270.228 262.441C270.061 262.241 269.754 262.241 269.587 262.441L268.241 264.057V272.656C268.241 272.886 268.054 273.073 267.824 273.073C267.594 273.073 267.408 272.886 267.408 272.656V264.057L266.065 262.447C265.899 262.247 265.593 262.247 265.426 262.446L264.074 264.058V272.656C264.074 272.886 263.888 273.073 263.658 273.073C263.427 273.073 263.241 272.886 263.241 272.656V264.052L261.666 262.083C261.522 261.904 261.551 261.641 261.731 261.498ZM272.408 270.995C272.408 270.991 272.408 270.987 272.408 270.983L272.408 266.162C272.973 265.598 273.331 265.247 273.639 265.027C273.939 264.813 274.168 264.74 274.491 264.74C274.578 264.74 274.777 264.792 275.017 264.978C275.248 265.156 275.492 265.439 275.673 265.846C276.031 266.653 276.158 267.99 275.354 270.002C274.775 271.45 273.837 272.395 272.87 272.992C272.858 272.973 272.845 272.954 272.833 272.935C272.512 272.424 272.396 271.858 272.387 271.406H272.408V270.995Z" fill="#FFD700"/>
<path fill-rule="evenodd" clip-rule="evenodd" d="M296.132 211.99C295.185 211.99 294.277 212.366 293.607 213.036C293.061 213.582 292.707 214.29 292.598 215.055L292.484 215.852C292.374 216.618 292.415 217.398 292.602 218.149L292.989 219.697C292.655 219.564 292.291 219.49 291.909 219.49C290.298 219.49 288.992 220.796 288.992 222.407C288.992 224.018 290.298 225.324 291.909 225.324C293.52 225.324 294.826 224.018 294.826 222.407C294.826 221.609 294.505 220.885 293.985 220.358C293.976 220.244 293.957 220.131 293.929 220.02L293.411 217.947C293.249 217.301 293.215 216.629 293.309 215.97L293.423 215.173C293.506 214.587 293.778 214.044 294.197 213.625C294.71 213.112 295.406 212.824 296.132 212.824H296.712C297.064 212.824 297.413 212.891 297.741 213.022L297.856 213.068C298.61 213.369 299.173 214.015 299.37 214.802C299.656 215.948 299.61 217.152 299.237 218.273L298.592 220.207L297.906 222.951C297.791 223.409 297.78 223.887 297.873 224.35L297.914 224.556C298.099 225.484 298.741 226.255 299.619 226.606C300.287 226.873 301.031 226.873 301.699 226.606L301.778 226.575C302.602 226.245 303.238 225.57 303.518 224.729L303.554 224.622C303.627 224.404 303.509 224.168 303.291 224.095C303.072 224.022 302.836 224.14 302.764 224.358L302.728 224.466C302.525 225.074 302.064 225.563 301.469 225.801L301.389 225.833C300.92 226.02 300.397 226.02 299.929 225.833C299.312 225.586 298.861 225.044 298.731 224.393L298.69 224.186C298.621 223.844 298.63 223.492 298.714 223.153L299.393 220.44L300.027 218.536C300.451 217.265 300.503 215.9 300.178 214.6C299.917 213.553 299.168 212.695 298.165 212.294L298.05 212.248C297.625 212.078 297.17 211.99 296.712 211.99H296.132ZM294.096 222.407C294.096 223.615 293.117 224.594 291.909 224.594C290.701 224.594 289.721 223.615 289.721 222.407C289.721 221.199 290.701 220.219 291.909 220.219C293.117 220.219 294.096 221.199 294.096 222.407Z" fill="#FFD700"/>
<path fill-rule="evenodd" clip-rule="evenodd" d="M296.909 172.99C300.087 172.99 302.828 171.117 304.088 168.414C304.549 167.842 304.826 167.115 304.826 166.323C304.826 164.482 303.333 162.99 301.492 162.99C299.651 162.99 298.159 164.482 298.159 166.323C298.159 168.164 299.651 169.656 301.492 169.656C301.813 169.656 302.124 169.611 302.418 169.526C301.119 171.13 299.134 172.156 296.909 172.156C295.237 172.156 293.7 171.577 292.488 170.608C292.313 170.41 292.095 170.18 292 170.145C291.92 170.115 291.836 170.099 291.763 170.099C291.533 170.099 291.347 170.286 291.347 170.516C291.347 170.65 291.41 170.77 291.509 170.846L291.495 170.849C292.911 172.177 294.815 172.99 296.909 172.99ZM303.383 167.958C303.763 167.52 303.992 166.948 303.992 166.323C303.992 164.942 302.873 163.823 301.492 163.823C300.111 163.823 298.992 164.942 298.992 166.323C298.992 167.704 300.111 168.823 301.492 168.823C302.244 168.823 302.918 168.491 303.376 167.966L303.379 167.959L303.383 167.958Z" fill="#FFD700"/>
<path fill-rule="evenodd" clip-rule="evenodd" d="M296.909 157.156C300.013 157.156 302.7 158.943 303.998 161.544C304.009 161.595 303.998 161.468 303.998 161.544C303.998 161.774 304.044 162.156 303.576 162.156C303.345 162.156 303.159 161.74 303.159 161.74V161.74C303.159 161.738 303.158 161.736 303.157 161.734C301.964 159.505 299.614 157.99 296.909 157.99C294.184 157.99 291.819 159.528 290.634 161.783C291.13 161.491 291.708 161.323 292.326 161.323C294.166 161.323 295.659 162.815 295.659 164.656C295.659 166.497 294.166 167.99 292.326 167.99C290.664 167.99 289.286 166.774 289.034 165.183L288.993 165.193C288.993 165.153 288.992 165.113 288.992 165.073C288.992 164.989 288.994 164.904 288.996 164.821C288.994 164.766 288.992 164.711 288.992 164.656C288.992 164.395 289.022 164.142 289.079 163.898C289.646 160.083 292.936 157.156 296.909 157.156ZM289.83 164.812C289.911 166.12 290.997 167.156 292.326 167.156C293.706 167.156 294.826 166.037 294.826 164.656C294.826 163.276 293.706 162.156 292.326 162.156C291.152 162.156 290.167 162.965 289.898 164.056C289.862 164.304 289.84 164.556 289.83 164.812Z" fill="#FFD700"/>
<rect x="101.492" y="101.49" width="181" height="181" stroke="#FFB300" stroke-width="2"/>
<rect x="158.866" y="68.366" width="181" height="181" transform="rotate(30 158.866 68.366)" stroke="#FFB300" stroke-width="2"/>
<rect x="225.118" y="68.366" width="181" height="181" transform="rotate(60 225.118 68.366)" stroke="#FFB300" stroke-width="2"/>
</svg>
