<svg width="38" height="38" viewBox="0 0 38 38" fill="none" xmlns="http://www.w3.org/2000/svg">
<path d="M24.3538 21.8475L27.9359 23.1303C28.4111 23.3008 28.695 22.6128 28.239 22.3982L24.7987 20.7728C24.4247 20.5961 24.5367 20.0375 24.9488 20.017L37.6225 19.3969C38.1258 19.3716 38.1258 18.6284 37.6225 18.6031L24.9488 17.983C24.5353 17.9625 24.4247 17.4039 24.7987 17.2271L28.239 15.6018C28.695 15.3857 28.4095 14.6992 27.9359 14.8697L24.3538 16.1525C23.9638 16.2914 23.6483 15.818 23.926 15.5119L32.4494 6.11188C32.7887 5.73792 32.2616 5.21245 31.8892 5.55171L22.4884 14.0743C22.1823 14.3521 21.7088 14.0349 21.8477 13.6467L23.1307 10.0647C23.3011 9.58976 22.6131 9.30572 22.3984 9.76174L20.773 13.2017C20.5963 13.5757 20.0376 13.4637 20.0171 13.0518L19.3969 0.377531C19.3716 -0.125844 18.6284 -0.125844 18.6031 0.377531L17.9829 13.0518C17.9624 13.4653 17.4037 13.5757 17.227 13.2017L15.6016 9.76174C15.3854 9.30572 14.6989 9.59133 14.8693 10.0647L16.1523 13.6467C16.2912 14.0365 15.8177 14.3521 15.5116 14.0743L6.11082 5.55171C5.73681 5.21245 5.21129 5.73949 5.55058 6.11188L14.0739 15.5119C14.3517 15.818 14.0345 16.2914 13.6463 16.1525L10.064 14.8697C9.58898 14.6992 9.30491 15.3872 9.76099 15.6018L13.2012 17.2271C13.5753 17.4039 13.4632 17.9625 13.0513 17.983L0.377562 18.6031C-0.125854 18.6284 -0.125854 19.3716 0.377562 19.3969L13.0513 20.017C13.4648 20.0375 13.5753 20.5961 13.2012 20.7728L9.76099 22.3982C9.30491 22.6144 9.59055 23.3008 10.064 23.1303L13.6463 21.8475C14.0361 21.7086 14.3517 22.182 14.0739 22.4881L5.55058 31.8881C5.21129 32.2621 5.73838 32.7875 6.11082 32.4483L15.5116 23.9256C15.8177 23.648 16.2912 23.965 16.1523 24.3533L14.8693 27.9352C14.6989 28.4102 15.3869 28.6943 15.6016 28.2383L17.227 24.7983C17.4037 24.4242 17.9624 24.5362 17.9829 24.9483L18.6031 37.6225C18.6284 38.1258 19.3716 38.1258 19.3969 37.6225L20.0171 24.9483C20.0376 24.5348 20.5963 24.4242 20.773 24.7983L22.3984 28.2383C22.6147 28.6943 23.3011 28.4088 23.1307 27.9352L21.8477 24.3533C21.7088 23.9636 22.1823 23.648 22.4884 23.9256L31.8892 32.4483C32.2633 32.7875 32.7887 32.2604 32.4494 31.8881L23.926 22.4881C23.6483 22.182 23.9638 21.7086 24.3538 21.8475Z" fill="black"/>
</svg>
