<svg width="163" height="163" viewBox="0 0 163 163" fill="none" xmlns="http://www.w3.org/2000/svg">
<path d="M104.303 93.6279L119.56 99.092C121.584 99.8179 122.793 96.8876 120.851 95.9735L106.198 89.0509C104.605 88.2982 105.082 85.919 106.837 85.8317L160.817 83.1903C162.961 83.0828 162.961 79.9172 160.817 79.8097L106.837 77.1684C105.076 77.081 104.605 74.7018 106.198 73.949L120.851 67.0265C122.793 66.1058 121.577 63.1821 119.56 63.908L104.303 69.3721C102.642 69.9636 101.298 67.9472 102.481 66.6434L138.784 26.6068C140.229 25.014 137.984 22.7759 136.398 24.2209L96.3579 60.5206C95.0539 61.7035 93.0375 60.3526 93.6289 58.6993L99.0935 43.4428C99.8194 41.4198 96.8889 40.21 95.9747 42.1523L89.0517 56.8039C88.2989 58.3968 85.9194 57.9196 85.832 56.1655L83.1905 2.18298C83.0829 0.0390028 79.9172 0.0390028 79.8096 2.18298L77.168 56.1655C77.0807 57.9264 74.7012 58.3968 73.9484 56.8039L67.0253 42.1523C66.1045 40.21 63.1806 41.4265 63.9066 43.4428L69.3711 58.6993C69.9626 60.3594 67.9461 61.7035 66.6422 60.5206L26.6023 24.2209C25.0093 22.7759 22.771 25.0207 24.2161 26.6068L60.5189 66.6434C61.7019 67.9472 60.3509 69.9636 58.6974 69.3721L43.4396 63.908C41.4165 63.1821 40.2066 66.1125 42.1491 67.0265L56.8019 73.949C58.3949 74.7018 57.9177 77.081 56.1634 77.1684L2.18313 79.8097C0.0389736 79.9172 0.0389736 83.0828 2.18313 83.1903L56.1634 85.8317C57.9244 85.919 58.3949 88.2982 56.8019 89.0509L42.1491 95.9735C40.2066 96.8943 41.4232 99.8179 43.4396 99.092L58.6974 93.6279C60.3576 93.0365 61.7019 95.0527 60.5189 96.3566L24.2161 136.393C22.771 137.986 25.016 140.224 26.6023 138.779L66.6422 102.479C67.9461 101.297 69.9626 102.647 69.3711 104.301L63.9066 119.557C63.1806 121.58 66.1112 122.79 67.0253 120.848L73.9484 106.196C74.7012 104.603 77.0807 105.08 77.168 106.835L79.8096 160.817C79.9172 162.961 83.0829 162.961 83.1905 160.817L85.832 106.835C85.9194 105.074 88.2989 104.603 89.0517 106.196L95.9747 120.848C96.8956 122.79 99.8194 121.574 99.0935 119.557L93.6289 104.301C93.0375 102.641 95.0539 101.297 96.3579 102.479L136.398 138.779C137.991 140.224 140.229 137.979 138.784 136.393L102.481 96.3566C101.298 95.0527 102.642 93.0365 104.303 93.6279Z" fill="black"/>
</svg>
